<svg width="101" height="60" viewBox="0 0 101 60" fill="none" xmlns="http://www.w3.org/2000/svg">
<rect x="3" y="28" width="98" height="16" fill="#4C5C79"/>
<path fill-rule="evenodd" clip-rule="evenodd" d="M100.95 31.9834C89.7679 36.2836 73.3279 39 55 39C33.0071 39 13.7327 35.0886 2.99998 29.2228L2.99998 13.4344C6.40584 14.9319 10.3693 15.79 14.5993 15.79C25.2319 15.79 34.1804 10.3679 36.8221 3C40.3976 7.32635 47.4088 10.2666 55.4731 10.2666C60.5098 10.2666 65.1357 9.1196 68.7704 7.20433C72.4767 12.4299 78.2554 15.7901 84.7476 15.7901C91.3726 15.7901 97.2547 12.2909 100.95 6.88102V31.9834Z" fill="#64ADFF"/>
<path fill-rule="evenodd" clip-rule="evenodd" d="M54.5143 5.79705C54.5143 12.4913 58.3135 17.9181 63 17.9181L63 21.7828H41V17.9181C45.6865 17.9181 49.4857 12.4913 49.4857 5.79705C49.4857 3.6972 49.1119 1.72205 48.4541 0H55.5459C54.8881 1.72205 54.5143 3.6972 54.5143 5.79705Z" fill="white"/>
<path fill-rule="evenodd" clip-rule="evenodd" d="M53.8857 21.7828V27.642C53.6566 28.8255 53.4336 30.1003 53.2228 31.4453C52.8066 34.1014 52.4919 36.6912 52.2888 38.9989C52.245 38.9985 52.2011 38.9983 52.1571 38.9983C52.0824 38.9983 52.0077 38.9989 51.9333 39C51.7308 36.6499 51.4109 33.9981 50.9845 31.2766C50.8067 30.1419 50.6201 29.0571 50.4286 28.035V21.7828H53.8857Z" fill="white"/>
<path d="M24.7117 59.1814C18.0025 59.1814 12.8037 58.8452 9.1154 58.173C8.16698 42.1345 7.30637 32.4346 6.53358 29.0732L4.95288 29.4094C4.10984 29.5694 3.30192 29.7455 2.52913 29.9376C1.75634 30.0977 0.93086 30.3377 0.0526902 30.6579L0 29.0252C0 28.481 0.649846 27.9848 1.94954 27.5366C3.24923 27.0564 4.81237 26.6883 6.63896 26.4322C8.50068 26.1441 10.1516 26 11.5918 26C13.1725 26 14.9816 26.2561 17.0189 26.7683C19.0914 27.2805 20.8653 28.0488 22.3406 29.0732C23.816 30.0656 24.5536 31.2501 24.5536 32.6267C24.5536 34.1953 23.8862 35.5879 22.5514 36.8044C21.2517 37.9888 19.5481 38.8372 17.4405 39.3494C20.5316 39.8296 23.412 40.6939 26.0816 41.9424C28.7513 43.1589 30.894 44.6795 32.5098 46.5043C34.1257 48.297 34.9336 50.2338 34.9336 52.3146C34.9336 54.7156 33.9149 56.4603 31.8776 57.5487C29.8402 58.6372 27.4516 59.1814 24.7117 59.1814ZM23.3418 56.4443C25.9411 56.4443 27.9434 56.1882 29.3484 55.676C30.7535 55.1317 31.456 53.9793 31.456 52.2186C31.456 50.3618 30.8413 48.8092 29.6119 47.5607C28.4176 46.2802 26.9949 45.2878 25.344 44.5835C23.7282 43.8472 21.7084 43.0789 19.2846 42.2786C17.3526 41.6703 15.9124 41.1421 14.964 40.6939C14.0507 40.2137 13.5941 39.6855 13.5941 39.1093C13.5941 38.6931 13.8224 38.373 14.279 38.1489C14.7357 37.9248 15.5436 37.6047 16.7028 37.1885C18.2835 36.7083 19.5129 36.1961 20.3911 35.6519C21.3044 35.0757 21.761 34.2753 21.761 33.2509C21.761 31.7463 20.7599 30.5939 18.7577 29.7935C16.7555 28.9612 14.5074 28.545 12.0134 28.545C11.3108 28.545 10.4678 28.6091 9.48423 28.7371C10.3975 34.1153 11.0298 38.6451 11.3811 42.3266C11.7324 45.9761 11.9782 50.2178 12.1187 55.0517C12.6105 55.4999 13.8575 55.836 15.8597 56.0601C17.862 56.2842 20.356 56.4123 23.3418 56.4443Z" fill="white"/>
<path d="M39.703 58.4931C39.4805 57.6821 39.3108 56.8658 39.1937 56.0441C39.0766 55.2118 38.9712 53.8459 38.8775 51.9465C38.8775 51.8184 38.9244 51.7064 39.018 51.6103C39.1234 51.5143 39.2405 51.4663 39.3693 51.4663H39.5274C39.5859 51.8184 39.6269 52.384 39.6503 53.163C39.6503 53.2483 39.662 53.5364 39.6855 54.0273C39.7089 54.5075 39.7674 54.961 39.8611 55.3878C41.2193 55.2705 42.3024 55.0304 43.1103 54.6676C43.9299 54.3047 44.3398 53.7872 44.3398 53.1149C44.3398 52.2719 43.9299 51.5836 43.1103 51.0501C42.2907 50.5166 41.0554 50.2498 39.4044 50.2498C38.7136 50.2498 38.1282 50.3672 37.6481 50.6019C37.5661 50.6339 37.5076 50.7033 37.4725 50.81C37.4373 50.906 37.4081 51.0448 37.3847 51.2262C37.3612 51.4182 37.332 51.5623 37.2968 51.6583C37.2617 51.7544 37.1973 51.8024 37.1036 51.8024C36.9983 51.8024 36.928 51.733 36.8929 51.5943C36.8695 51.4449 36.8577 51.1088 36.8577 50.5859C36.8577 50.2871 37.0802 50.0524 37.5252 49.8816C37.9701 49.7109 38.5438 49.6255 39.2464 49.6255C41.2954 49.6255 42.8176 49.919 43.8129 50.5059C44.8081 51.0928 45.3057 51.9945 45.3057 53.211C45.3057 53.8619 45.0189 54.4061 44.4451 54.8436C43.8714 55.2811 43.1747 55.6066 42.3551 55.82C41.5355 56.0228 40.751 56.1241 40.0016 56.1241C40.025 56.2522 40.0484 56.3696 40.0719 56.4763C40.0953 56.583 40.1128 56.6737 40.1245 56.7484C40.2885 57.474 40.3704 58.0342 40.3704 58.4291C40.3704 58.6638 40.3353 58.8506 40.265 58.9893C40.2065 59.128 40.0718 59.176 39.8611 59.1334L39.703 58.4931Z" fill="white"/>
<path d="M47.2826 59.0213C47.025 57.8582 46.8259 56.4816 46.6854 54.8916C46.5566 53.291 46.4922 51.7437 46.4922 50.2498C46.4922 49.5028 46.5098 48.8412 46.5449 48.265C46.5449 48.1263 46.662 48.0569 46.8962 48.0569C47.0835 48.0569 47.2006 48.0996 47.2475 48.1849C47.306 48.2703 47.3353 48.4037 47.3353 48.5851C47.3353 50.3138 47.3704 51.7917 47.4407 53.0189C47.5109 54.2354 47.6046 55.5479 47.7217 56.9565C47.7919 57.8635 47.8388 58.4771 47.8622 58.7972C47.8739 58.968 47.7744 59.0533 47.5636 59.0533C47.4933 59.0533 47.3997 59.0427 47.2826 59.0213Z" fill="white"/>
<path d="M53.7805 59.1334C52.5628 59.1334 51.5031 58.9413 50.6015 58.5571C49.7116 58.1623 49.2667 57.474 49.2667 56.4923C49.2667 56.1402 49.3838 55.7987 49.618 55.4679C49.8521 55.1371 50.1976 54.8703 50.6542 54.6676C51.1109 54.4541 51.667 54.3474 52.3227 54.3474C52.8262 54.3474 53.2536 54.3688 53.6049 54.4115C53.9561 54.4541 54.3601 54.5715 54.8167 54.7636C55.2734 54.9557 55.7476 55.2598 56.2394 55.676C56.052 54.9397 55.771 54.2941 55.3963 53.7392C55.0216 53.1843 54.6001 52.7575 54.1318 52.4587C53.6751 52.1492 53.2243 51.9945 52.7794 51.9945C52.5686 51.9945 52.3696 52.0318 52.1822 52.1065C52.0066 52.1706 51.79 52.2666 51.5324 52.3946C51.2397 52.5654 51.023 52.6507 50.8825 52.6507C50.824 52.6507 50.7713 52.6347 50.7245 52.6027C50.6893 52.56 50.6718 52.512 50.6718 52.4587C50.6718 52.0318 50.8767 51.701 51.2865 51.4663C51.708 51.2315 52.2174 51.1248 52.8145 51.1461C53.6341 51.1888 54.3835 51.509 55.0626 52.1065C55.7417 52.6934 56.2745 53.4244 56.6609 54.2994C57.059 55.1744 57.258 56.0334 57.258 56.8764C57.258 57.0152 57.2463 57.2126 57.2229 57.4687L56.6609 57.4367C56.216 56.615 55.6422 56.0334 54.9397 55.692C54.2488 55.3398 53.5522 55.1638 52.8496 55.1638C51.948 55.1638 51.3041 55.2865 50.9177 55.5319C50.5313 55.7773 50.3381 56.1348 50.3381 56.6043C50.3381 57.0952 50.6074 57.49 51.146 57.7888C51.6846 58.0876 52.3754 58.237 53.2185 58.237C53.6868 58.237 54.0615 58.2157 54.3425 58.173C54.6235 58.1196 54.9163 58.0503 55.2207 57.9649C55.4666 57.8902 55.6832 57.8368 55.8705 57.8048C56.0579 57.7728 56.2979 57.7568 56.5906 57.7568C56.9185 57.7568 57.1234 57.7781 57.2054 57.8208C57.299 57.8635 57.3459 57.9596 57.3459 58.1089C57.3459 58.2157 57.1058 58.349 56.6258 58.5091C56.1457 58.6692 55.6071 58.8132 55.0099 58.9413C54.4128 59.0693 54.003 59.1334 53.7805 59.1334Z" fill="white"/>
<path d="M61.5793 59.1334C61.4622 59.1547 61.3861 59.1654 61.351 59.1654C60.988 59.1654 60.7363 58.9199 60.5958 58.4291C60.467 57.9382 60.4026 57.2499 60.4026 56.3642C60.4026 56.0014 60.4143 55.4359 60.4377 54.6676C60.4611 54.198 60.4728 53.8459 60.4728 53.6111C59.0326 53.6111 58.3125 53.4617 58.3125 53.163C58.3125 53.0669 58.3242 52.9922 58.3477 52.9389C58.3828 52.8855 58.453 52.8588 58.5584 52.8588L60.4728 52.7468C60.4611 52.2239 60.4319 51.653 60.385 51.0341C60.3382 50.4792 60.3089 49.967 60.2972 49.4975C60.2972 49.3801 60.3499 49.3001 60.4553 49.2574C60.5607 49.204 60.6719 49.1773 60.789 49.1773C60.9295 49.1773 61.0466 49.2467 61.1402 49.3854C61.2339 49.5135 61.2807 49.6469 61.2807 49.7856L61.4037 52.7148L62.8615 52.7788C63.0839 52.7575 63.2713 52.7948 63.4235 52.8908C63.5874 52.9869 63.6752 53.1469 63.6869 53.371C63.441 53.4671 63.1717 53.5258 62.879 53.5471C62.5863 53.5684 62.0945 53.5791 61.4037 53.5791C61.4037 54.5715 61.4564 56.2042 61.5618 58.4771C61.5618 58.7119 61.5618 58.8773 61.5618 58.9733C61.5735 59.0587 61.5793 59.112 61.5793 59.1334Z" fill="white"/>
<path d="M68.9724 47.8648C69.4993 47.8648 70.0028 47.9875 70.4829 48.233C70.9629 48.4677 71.3493 48.7718 71.6421 49.1453C71.9465 49.5188 72.0987 49.8923 72.0987 50.2658H71.7123C71.5367 50.2658 71.3786 50.2178 71.2381 50.1217C71.1093 50.0257 70.9395 49.871 70.7288 49.6575C70.4243 49.3588 70.1492 49.1347 69.9033 48.9853C69.6691 48.8359 69.3647 48.7612 68.99 48.7612C68.346 48.7612 67.8074 49.0333 67.3741 49.5775C66.9409 50.1111 66.6833 50.7406 66.6014 51.4663C66.5662 51.7971 66.5487 52.1279 66.5487 52.4587C66.5487 53.0029 66.5897 53.5044 66.6716 53.9633C66.8238 53.9846 67.1809 54.0113 67.743 54.0433C68.305 54.0753 68.7675 54.102 69.1305 54.1233C69.2593 54.1233 69.511 54.134 69.8857 54.1554C70.0028 54.1554 70.0848 54.182 70.1316 54.2354C70.1901 54.2781 70.2194 54.3581 70.2194 54.4755C70.2194 54.7636 69.8623 54.9077 69.1481 54.9077C68.5275 54.9077 67.7488 54.8063 66.8121 54.6035C66.9409 55.0837 67.1048 55.5266 67.3039 55.9321C67.5029 56.3269 67.7605 56.8018 68.0767 57.3566C68.2992 57.7515 68.4631 58.0609 68.5685 58.285C68.6738 58.4984 68.7265 58.6798 68.7265 58.8292C68.7265 58.9466 68.6855 59.032 68.6036 59.0853C68.5216 59.128 68.4045 59.1494 68.2523 59.1494C67.9362 59.1494 67.6376 58.8452 67.3566 58.237C67.0873 57.6181 66.777 56.7644 66.4257 55.676L66.1096 54.7316C65.852 54.7529 65.53 54.817 65.1436 54.9237C65.1085 54.9343 64.9855 54.9663 64.7748 55.0197C64.5757 55.0624 64.3942 55.0837 64.2303 55.0837C64.043 55.0837 63.9493 54.9824 63.9493 54.7796C63.9493 54.5128 64.1015 54.3368 64.4059 54.2514C64.7104 54.1554 64.9972 54.102 65.2665 54.0913C65.5358 54.07 65.7056 54.054 65.7759 54.0433C65.7525 53.6378 65.7408 53.275 65.7408 52.9549C65.7408 51.5783 65.9691 50.3885 66.4257 49.3854C66.8941 48.3717 67.743 47.8648 68.9724 47.8648Z" fill="white"/>
<path d="M75.3883 59.1494C74.6974 59.1494 74.071 59.0106 73.509 58.7332C72.9587 58.4451 72.5254 58.0503 72.2093 57.5487C71.9049 57.0365 71.7526 56.4549 71.7526 55.804C71.7526 54.7369 72.18 53.9419 73.0348 53.4191C73.9012 52.8962 74.9609 52.6347 76.2138 52.6347C76.7875 52.6347 77.3203 52.7628 77.812 53.0189C78.3155 53.275 78.7195 53.6431 79.0239 54.1233C79.3283 54.6035 79.4805 55.1584 79.4805 55.788C79.4805 56.471 79.2873 57.0685 78.901 57.5807C78.5146 58.0823 78.0052 58.4718 77.3729 58.7492C76.7524 59.016 76.0908 59.1494 75.3883 59.1494ZM75.1951 58.237C76.284 58.237 77.1095 58.0129 77.6715 57.5647C78.2335 57.1165 78.5146 56.4603 78.5146 55.5959C78.5146 55.009 78.2921 54.5022 77.8472 54.0753C77.4139 53.6485 76.8051 53.4351 76.0206 53.4351C75.4937 53.4351 74.9609 53.5258 74.4223 53.7072C73.8837 53.8886 73.4387 54.1607 73.0875 54.5235C72.7362 54.8863 72.5606 55.3238 72.5606 55.836C72.5606 56.2629 72.6777 56.663 72.9118 57.0365C73.146 57.3993 73.4622 57.6928 73.8603 57.9169C74.2701 58.1303 74.715 58.237 75.1951 58.237Z" fill="white"/>
<path d="M82.423 59.1334C81.9429 58.2797 81.5624 57.2766 81.2813 56.1241C81.012 54.9717 80.8774 53.9739 80.8774 53.1309C80.8774 52.8001 80.9593 52.5867 81.1233 52.4907C81.2169 52.4373 81.2872 52.4106 81.334 52.4106C81.416 52.4106 81.4745 52.4693 81.5097 52.5867C81.5565 52.7041 81.6033 52.9175 81.6502 53.227L81.738 53.8032C81.8668 53.227 82.1127 52.7735 82.4757 52.4427C82.8503 52.1012 83.307 51.9305 83.8456 51.9305C84.4427 51.9305 84.8877 52.0372 85.1804 52.2506C85.4731 52.4533 85.6195 52.7948 85.6195 53.275C85.0341 53.0189 84.5013 52.8908 84.0212 52.8908C83.5646 52.8908 83.1723 53.0029 82.8445 53.227C82.5166 53.4511 82.2883 53.7819 82.1595 54.2194C82.0541 54.5182 82.0014 54.8009 82.0014 55.0677C82.0014 55.3558 82.0424 55.6279 82.1244 55.884C82.2181 56.1295 82.3586 56.4336 82.5459 56.7964C82.7215 57.1699 82.8562 57.49 82.9499 57.7568C83.0552 58.0236 83.1138 58.3117 83.1255 58.6212C83.1255 58.8026 83.0552 58.9359 82.9147 59.0213C82.7742 59.096 82.6103 59.1334 82.423 59.1334Z" fill="white"/>
<path d="M97.7131 59.1494C97.5375 59.1494 97.4321 59.1067 97.397 59.0213C97.3619 58.9253 97.3443 58.7812 97.3443 58.5891C97.356 58.5144 97.3619 58.4291 97.3619 58.333C97.3619 58.2263 97.3677 58.1463 97.3794 58.0929C97.4497 57.5807 97.4848 57.0952 97.4848 56.6364C97.4848 55.6226 97.2975 54.833 96.9228 54.2674C96.5481 53.6912 95.9568 53.403 95.1489 53.403C94.7039 53.403 94.259 53.5044 93.8141 53.7072C93.3808 53.9099 93.0237 54.1607 92.7427 54.4595C92.4734 54.7583 92.3387 55.0304 92.3387 55.2758C92.3973 55.5853 92.5027 55.9641 92.6549 56.4123C92.6666 56.4656 92.7134 56.631 92.7954 56.9085C92.8891 57.1859 92.9359 57.4367 92.9359 57.6608L92.9535 57.9649C92.9535 58.1356 92.8598 58.221 92.6724 58.221C92.4383 58.221 92.2451 58.0823 92.0928 57.8048C91.9523 57.5274 91.7943 57.0952 91.6186 56.5083C91.443 55.9321 91.2732 55.4572 91.1093 55.0837C90.9454 54.7102 90.7229 54.3901 90.4419 54.1233C90.1609 53.8566 89.8038 53.7232 89.3705 53.7232C88.7734 53.7232 88.305 53.9099 87.9654 54.2834C87.6376 54.6569 87.4737 55.1157 87.4737 55.66C87.4737 56.0228 87.5088 56.503 87.5791 57.1005C87.6376 57.5487 87.6669 57.9329 87.6669 58.253C87.6669 58.4451 87.6435 58.5891 87.5966 58.6852C87.5498 58.7812 87.4385 58.8292 87.2629 58.8292C87.0287 58.8292 86.8648 58.7599 86.7711 58.6212C86.6775 58.4718 86.6306 58.2477 86.6306 57.9489C86.6306 57.362 86.5955 56.6524 86.5252 55.82C86.5135 55.7133 86.4901 55.4412 86.455 55.0037C86.4199 54.5555 86.414 54.1073 86.4374 53.6592L86.455 53.1309C86.5253 53.0669 86.6072 53.0349 86.7009 53.0349C86.8297 53.0349 86.9351 53.1096 87.017 53.259C87.1107 53.3977 87.1575 53.6111 87.1575 53.8993C87.3332 53.6218 87.5908 53.371 87.9303 53.1469C88.2699 52.9229 88.627 52.8108 89.0017 52.8108C89.6457 52.8108 90.1784 52.9335 90.6 53.179C91.0332 53.4137 91.4254 53.7979 91.7767 54.3314C92.1046 53.7872 92.5963 53.323 93.252 52.9389C93.9194 52.5547 94.6044 52.3626 95.3069 52.3626C96.0329 52.3626 96.6359 52.6134 97.116 53.1149C97.6078 53.6165 97.9649 54.2194 98.1873 54.9237C98.4215 55.6279 98.5386 56.2789 98.5386 56.8764C98.5386 57.41 98.4859 57.9222 98.3805 58.4131C98.2869 58.9039 98.0644 59.1494 97.7131 59.1494Z" fill="white"/>
</svg>
