<svg width="131" height="76" viewBox="0 0 131 76" fill="none" xmlns="http://www.w3.org/2000/svg">
<path d="M11.8638 29.6262C17.1573 21.8724 37.7264 2.64309 42.3544 0.161866C46.9824 -2.31936 24.9312 24.3536 33.0983 37.0698C41.2654 49.786 38.8153 63.8635 36.9096 65.9139C35.004 67.9644 29.8315 79.5606 17.8531 74.9083C5.87465 70.256 2.87999 66.2241 0.429869 57.2297C-2.02025 48.2352 6.57022 37.38 11.8638 29.6262Z" fill="black"/>
<path fill-rule="evenodd" clip-rule="evenodd" d="M23.1744 75.9999C21.5706 75.9921 19.8019 75.6653 17.853 74.9083C6.44225 70.4765 3.18394 66.6076 0.782715 58.4756C3.33604 52.9042 11.0488 48.8556 20.167 48.8556C28.5143 48.8556 35.6838 52.2486 38.7954 57.0967C38.7297 61.6513 37.7648 64.9937 36.9096 65.9139C36.616 66.2298 36.2449 66.7723 35.7833 67.447C34.1744 69.7986 31.4665 73.7567 27.1115 75.3279C25.8527 75.6366 24.5356 75.8637 23.1744 75.9999Z" fill="black"/>
<path d="M62.8212 55C56.6252 55 51.8242 54.686 48.418 54.0579C47.5422 39.0738 46.7474 30.0116 46.0337 26.8712L44.574 27.1852C43.7954 27.3348 43.0493 27.4993 42.3356 27.6787C41.622 27.8283 40.8596 28.0526 40.0487 28.3517L40 26.8263C40 26.3179 40.6001 25.8543 41.8004 25.4356C43.0006 24.987 44.4442 24.643 46.1311 24.4038C47.8503 24.1346 49.375 24 50.705 24C52.1648 24 53.8354 24.2393 55.7169 24.7178C57.6308 25.1963 59.269 25.9141 60.6315 26.8712C61.9939 27.7984 62.6752 28.905 62.6752 30.191C62.6752 31.6565 62.0588 32.9576 60.8261 34.0941C59.6259 35.2007 58.0526 35.9932 56.1062 36.4718C58.9609 36.9204 61.6209 37.7279 64.0863 38.8944C66.5517 40.0309 68.5305 41.4515 70.0227 43.1563C71.5149 44.8312 72.261 46.6406 72.261 48.5847C72.261 50.8278 71.3203 52.4578 69.4388 53.4747C67.5573 54.4916 65.3514 55 62.8212 55ZM61.556 52.4428C63.9565 52.4428 65.8056 52.2036 67.1032 51.725C68.4007 51.2166 69.0495 50.1399 69.0495 48.4949C69.0495 46.7603 68.4818 45.3097 67.3465 44.1433C66.2435 42.9469 64.9297 42.0198 63.4051 41.3618C61.9128 40.6739 60.0476 39.9561 57.8093 39.2084C56.0251 38.6401 54.6951 38.1466 53.8192 37.7279C52.9758 37.2793 52.5541 36.7858 52.5541 36.2475C52.5541 35.8587 52.7649 35.5596 53.1866 35.3502C53.6083 35.1409 54.3545 34.8418 55.425 34.453C56.8847 34.0043 58.0201 33.5258 58.8311 33.0174C59.6745 32.479 60.0962 31.7313 60.0962 30.7742C60.0962 29.3685 59.1717 28.2918 57.3227 27.5441C55.4736 26.7665 53.3975 26.3777 51.0943 26.3777C50.4455 26.3777 49.667 26.4375 48.7587 26.5572C49.6021 31.5818 50.186 35.8138 50.5104 39.2533C50.8348 42.6628 51.0619 46.6257 51.1916 51.1418C51.6458 51.5605 52.7974 51.8746 54.6464 52.0839C56.4955 52.2933 58.7987 52.4129 61.556 52.4428Z" fill="black"/>
<path d="M76.6656 54.357C76.4601 53.5993 76.3033 52.8366 76.1952 52.069C76.0871 51.2914 75.9898 50.0153 75.9032 48.2407C75.9032 48.1211 75.9465 48.0164 76.033 47.9267C76.1303 47.837 76.2385 47.7921 76.3574 47.7921H76.5034C76.5574 48.1211 76.5953 48.6495 76.6169 49.3772C76.6169 49.457 76.6277 49.7262 76.6494 50.1848C76.671 50.6334 76.725 51.0571 76.8116 51.4559C78.0659 51.3462 79.0661 51.1219 79.8122 50.7829C80.5691 50.444 80.9476 49.9604 80.9476 49.3324C80.9476 48.5448 80.5691 47.9018 79.8122 47.4033C79.0553 46.9048 77.9145 46.6556 76.3898 46.6556C75.7519 46.6556 75.2112 46.7652 74.7679 46.9846C74.6922 47.0145 74.6381 47.0793 74.6057 47.179C74.5732 47.2687 74.5462 47.3983 74.5246 47.5678C74.5029 47.7472 74.4759 47.8818 74.4435 47.9715C74.411 48.0613 74.3516 48.1061 74.2651 48.1061C74.1677 48.1061 74.1029 48.0413 74.0704 47.9117C74.0488 47.7721 74.038 47.4581 74.038 46.9696C74.038 46.6905 74.2434 46.4711 74.6543 46.3116C75.0652 46.1521 75.5951 46.0724 76.2439 46.0724C78.1362 46.0724 79.5419 46.3465 80.461 46.8948C81.3801 47.4432 81.8397 48.2856 81.8397 49.4221C81.8397 50.0302 81.5747 50.5387 81.0449 50.9474C80.5151 51.3562 79.8717 51.6602 79.1148 51.8596C78.3578 52.049 77.6334 52.1438 76.9413 52.1438C76.9629 52.2634 76.9846 52.373 77.0062 52.4727C77.0278 52.5724 77.044 52.6572 77.0548 52.727C77.2062 53.4049 77.2819 53.9283 77.2819 54.2972C77.2819 54.5165 77.2495 54.6909 77.1846 54.8206C77.1305 54.9502 77.0062 54.995 76.8116 54.9551L76.6656 54.357Z" fill="black"/>
<path d="M83.6653 54.8505C83.4274 53.7638 83.2436 52.4777 83.1138 50.9923C82.9949 49.4969 82.9354 48.0513 82.9354 46.6556C82.9354 45.9577 82.9516 45.3396 82.984 44.8013C82.984 44.6717 83.0922 44.6069 83.3084 44.6069C83.4814 44.6069 83.5896 44.6467 83.6328 44.7265C83.6869 44.8062 83.7139 44.9309 83.7139 45.1003C83.7139 46.7154 83.7464 48.0962 83.8112 49.2426C83.8761 50.3792 83.9626 51.6054 84.0708 52.9214C84.1356 53.7688 84.1789 54.342 84.2005 54.6411C84.2113 54.8006 84.1194 54.8804 83.9248 54.8804C83.8599 54.8804 83.7734 54.8704 83.6653 54.8505Z" fill="black"/>
<path d="M89.6661 54.9551C88.5415 54.9551 87.5629 54.7757 86.7303 54.4168C85.9085 54.0479 85.4976 53.4049 85.4976 52.4877C85.4976 52.1587 85.6057 51.8397 85.822 51.5306C86.0383 51.2216 86.3572 50.9723 86.779 50.7829C87.2007 50.5835 87.7143 50.4838 88.3198 50.4838C88.7848 50.4838 89.1795 50.5038 89.5039 50.5437C89.8283 50.5835 90.2013 50.6932 90.623 50.8726C91.0447 51.0521 91.4827 51.3362 91.9368 51.725C91.7638 51.0371 91.5043 50.434 91.1583 49.9156C90.8123 49.3972 90.423 48.9984 89.9905 48.7192C89.5687 48.4301 89.1524 48.2856 88.7415 48.2856C88.5469 48.2856 88.3631 48.3205 88.1901 48.3903C88.0279 48.4501 87.8278 48.5398 87.5899 48.6594C87.3196 48.8189 87.1196 48.8987 86.9898 48.8987C86.9357 48.8987 86.8871 48.8837 86.8438 48.8538C86.8114 48.814 86.7952 48.7691 86.7952 48.7192C86.7952 48.3205 86.9844 48.0114 87.3629 47.7921C87.7521 47.5728 88.2225 47.4731 88.774 47.493C89.5309 47.5329 90.2229 47.832 90.8501 48.3903C91.4773 48.9386 91.9693 49.6215 92.3261 50.439C92.6937 51.2565 92.8776 52.059 92.8776 52.8466C92.8776 52.9762 92.8668 53.1606 92.8451 53.3999L92.3261 53.37C91.9152 52.6023 91.3854 52.059 90.7366 51.74C90.0986 51.411 89.4552 51.2465 88.8064 51.2465C87.9738 51.2465 87.3791 51.3611 87.0222 51.5904C86.6654 51.8197 86.487 52.1537 86.487 52.5924C86.487 53.051 86.7357 53.4198 87.2331 53.699C87.7305 53.9781 88.3685 54.1177 89.147 54.1177C89.5796 54.1177 89.9256 54.0978 90.1851 54.0579C90.4446 54.008 90.7149 53.9432 90.9961 53.8635C91.2232 53.7937 91.4232 53.7438 91.5962 53.7139C91.7692 53.684 91.9909 53.6691 92.2612 53.6691C92.564 53.6691 92.7532 53.689 92.8289 53.7289C92.9154 53.7688 92.9587 53.8585 92.9587 53.9981C92.9587 54.0978 92.737 54.2224 92.2937 54.3719C91.8503 54.5215 91.3529 54.6561 90.8014 54.7757C90.25 54.8953 89.8715 54.9551 89.6661 54.9551Z" fill="black"/>
<path d="M96.8683 54.9551C96.7601 54.9751 96.6898 54.985 96.6574 54.985C96.3222 54.985 96.0897 54.7557 95.9599 54.2972C95.841 53.8386 95.7815 53.1955 95.7815 52.3681C95.7815 52.0291 95.7923 51.5007 95.814 50.7829C95.8356 50.3443 95.8464 50.0153 95.8464 49.7959C94.5164 49.7959 93.8514 49.6564 93.8514 49.3772C93.8514 49.2875 93.8622 49.2177 93.8838 49.1679C93.9163 49.118 93.9811 49.0931 94.0785 49.0931L95.8464 48.9884C95.8356 48.4999 95.8086 47.9666 95.7653 47.3883C95.7221 46.8699 95.695 46.3914 95.6842 45.9527C95.6842 45.8431 95.7329 45.7683 95.8302 45.7284C95.9275 45.6786 96.0302 45.6536 96.1384 45.6536C96.2681 45.6536 96.3763 45.7184 96.4628 45.848C96.5493 45.9677 96.5925 46.0923 96.5925 46.2219L96.7061 48.9585L98.0523 49.0183C98.2577 48.9984 98.4308 49.0333 98.5713 49.123C98.7227 49.2127 98.8038 49.3623 98.8146 49.5716C98.5875 49.6614 98.3388 49.7162 98.0685 49.7361C97.7982 49.7561 97.344 49.766 96.7061 49.766C96.7061 50.6932 96.7547 52.2185 96.852 54.342C96.852 54.5613 96.852 54.7159 96.852 54.8056C96.8628 54.8854 96.8683 54.9352 96.8683 54.9551Z" fill="black"/>
<path d="M103.696 44.4274C104.182 44.4274 104.647 44.542 105.091 44.7713C105.534 44.9907 105.891 45.2748 106.161 45.6237C106.442 45.9727 106.583 46.3216 106.583 46.6705H106.226C106.064 46.6705 105.918 46.6257 105.788 46.5359C105.669 46.4462 105.512 46.3017 105.318 46.1023C105.037 45.8231 104.782 45.6138 104.555 45.4742C104.339 45.3346 104.058 45.2648 103.712 45.2648C103.117 45.2648 102.62 45.5191 102.22 46.0275C101.82 46.526 101.582 47.1142 101.506 47.7921C101.474 48.1011 101.457 48.4102 101.457 48.7192C101.457 49.2277 101.495 49.6963 101.571 50.1249C101.712 50.1449 102.041 50.1698 102.56 50.1997C103.079 50.2296 103.507 50.2545 103.842 50.2745C103.961 50.2745 104.193 50.2845 104.539 50.3044C104.647 50.3044 104.723 50.3293 104.766 50.3792C104.82 50.419 104.847 50.4938 104.847 50.6035C104.847 50.8726 104.518 51.0072 103.858 51.0072C103.285 51.0072 102.566 50.9125 101.701 50.7231C101.82 51.1717 101.971 51.5855 102.155 51.9643C102.339 52.3332 102.577 52.7768 102.869 53.2952C103.074 53.6641 103.225 53.9532 103.323 54.1626C103.42 54.362 103.469 54.5314 103.469 54.671C103.469 54.7807 103.431 54.8604 103.355 54.9103C103.279 54.9502 103.171 54.9701 103.031 54.9701C102.739 54.9701 102.463 54.686 102.204 54.1177C101.955 53.5395 101.668 52.7419 101.344 51.725L101.052 50.8427C100.814 50.8627 100.517 50.9225 100.16 51.0222C100.127 51.0322 100.014 51.0621 99.8192 51.1119C99.6354 51.1518 99.4678 51.1717 99.3164 51.1717C99.1434 51.1717 99.0569 51.077 99.0569 50.8876C99.0569 50.6384 99.1975 50.4739 99.4786 50.3941C99.7598 50.3044 100.025 50.2545 100.273 50.2446C100.522 50.2246 100.679 50.2097 100.744 50.1997C100.722 49.8209 100.711 49.4819 100.711 49.1828C100.711 47.8968 100.922 46.7852 101.344 45.848C101.776 44.9009 102.56 44.4274 103.696 44.4274Z" fill="black"/>
<path d="M109.621 54.9701C108.983 54.9701 108.404 54.8405 107.885 54.5813C107.377 54.3121 106.977 53.9432 106.685 53.4747C106.404 52.9961 106.263 52.4528 106.263 51.8447C106.263 50.8477 106.658 50.105 107.447 49.6165C108.247 49.128 109.226 48.8837 110.383 48.8837C110.913 48.8837 111.405 49.0034 111.859 49.2426C112.324 49.4819 112.697 49.8259 112.978 50.2745C113.259 50.7231 113.4 51.2415 113.4 51.8297C113.4 52.4678 113.222 53.026 112.865 53.5046C112.508 53.9731 112.037 54.337 111.454 54.5962C110.88 54.8455 110.27 54.9701 109.621 54.9701ZM109.442 54.1177C110.448 54.1177 111.21 53.9083 111.729 53.4896C112.248 53.0709 112.508 52.4578 112.508 51.6503C112.508 51.1019 112.302 50.6284 111.892 50.2296C111.491 49.8308 110.929 49.6315 110.205 49.6315C109.718 49.6315 109.226 49.7162 108.729 49.8857C108.231 50.0552 107.82 50.3094 107.496 50.6483C107.172 50.9873 107.009 51.396 107.009 51.8746C107.009 52.2734 107.118 52.6472 107.334 52.9961C107.55 53.3351 107.842 53.6093 108.21 53.8186C108.588 54.018 108.999 54.1177 109.442 54.1177Z" fill="black"/>
<path d="M116.117 54.9551C115.674 54.1576 115.322 53.2205 115.063 52.1438C114.814 51.0671 114.69 50.1349 114.69 49.3473C114.69 49.0383 114.766 48.8389 114.917 48.7492C115.004 48.6993 115.068 48.6744 115.112 48.6744C115.187 48.6744 115.241 48.7292 115.274 48.8389C115.317 48.9485 115.36 49.1479 115.404 49.437L115.485 49.9754C115.604 49.437 115.831 49.0133 116.166 48.7043C116.512 48.3853 116.934 48.2258 117.431 48.2258C117.983 48.2258 118.393 48.3255 118.664 48.5248C118.934 48.7143 119.069 49.0333 119.069 49.4819C118.529 49.2426 118.037 49.123 117.593 49.123C117.172 49.123 116.809 49.2277 116.507 49.437C116.204 49.6464 115.993 49.9555 115.874 50.3642C115.777 50.6433 115.728 50.9075 115.728 51.1568C115.728 51.426 115.766 51.6802 115.842 51.9194C115.928 52.1487 116.058 52.4329 116.231 52.7718C116.393 53.1208 116.517 53.4198 116.604 53.6691C116.701 53.9183 116.755 54.1875 116.766 54.4766C116.766 54.6461 116.701 54.7707 116.571 54.8505C116.442 54.9202 116.29 54.9551 116.117 54.9551Z" fill="black"/>
<path d="M130.238 54.9701C130.075 54.9701 129.978 54.9302 129.946 54.8505C129.913 54.7607 129.897 54.6261 129.897 54.4467C129.908 54.3769 129.913 54.2972 129.913 54.2074C129.913 54.1077 129.919 54.033 129.93 53.9831C129.994 53.5046 130.027 53.051 130.027 52.6223C130.027 51.6752 129.854 50.9374 129.508 50.4091C129.162 49.8707 128.616 49.6015 127.87 49.6015C127.459 49.6015 127.048 49.6963 126.637 49.8857C126.237 50.0751 125.907 50.3094 125.647 50.5885C125.399 50.8677 125.274 51.1219 125.274 51.3512C125.329 51.6403 125.426 51.9942 125.566 52.4129C125.577 52.4628 125.62 52.6173 125.696 52.8765C125.783 53.1357 125.826 53.37 125.826 53.5794L125.842 53.8635C125.842 54.023 125.756 54.1027 125.583 54.1027C125.366 54.1027 125.188 53.9731 125.047 53.7139C124.918 53.4547 124.772 53.051 124.609 52.5027C124.447 51.9643 124.29 51.5207 124.139 51.1717C123.988 50.8228 123.782 50.5237 123.523 50.2745C123.263 50.0252 122.933 49.9006 122.533 49.9006C121.982 49.9006 121.549 50.0751 121.236 50.424C120.933 50.773 120.782 51.2016 120.782 51.7101C120.782 52.049 120.814 52.4977 120.879 53.056C120.933 53.4747 120.96 53.8336 120.96 54.1327C120.96 54.3121 120.938 54.4467 120.895 54.5364C120.852 54.6261 120.749 54.671 120.587 54.671C120.371 54.671 120.219 54.6062 120.133 54.4766C120.046 54.337 120.003 54.1277 120.003 53.8485C120.003 53.3002 119.971 52.6372 119.906 51.8596C119.895 51.7599 119.873 51.5057 119.841 51.097C119.808 50.6782 119.803 50.2595 119.825 49.8408L119.841 49.3473C119.906 49.2875 119.981 49.2576 120.068 49.2576C120.187 49.2576 120.284 49.3274 120.36 49.467C120.446 49.5966 120.49 49.7959 120.49 50.0651C120.652 49.8059 120.89 49.5716 121.203 49.3623C121.517 49.1529 121.847 49.0482 122.193 49.0482C122.787 49.0482 123.279 49.1629 123.669 49.3922C124.069 49.6115 124.431 49.9704 124.755 50.4689C125.058 49.9604 125.512 49.5268 126.118 49.1679C126.734 48.809 127.367 48.6295 128.016 48.6295C128.686 48.6295 129.243 48.8638 129.686 49.3324C130.14 49.8009 130.47 50.3642 130.676 51.0222C130.892 51.6802 131 52.2883 131 52.8466C131 53.3451 130.951 53.8236 130.854 54.2822C130.768 54.7408 130.562 54.9701 130.238 54.9701Z" fill="black"/>
</svg>
