<svg width="103" height="74" viewBox="0 0 103 74" fill="none" xmlns="http://www.w3.org/2000/svg">
<rect x="5" y="29" width="98" height="16" fill="#F3B971"/>
<path fill-rule="evenodd" clip-rule="evenodd" d="M102.95 51.9834C91.7679 56.2836 75.3279 59 57 59C35.0072 59 15.7327 55.0886 5 49.2228V33.4344C8.40585 34.9319 12.3693 35.79 16.5993 35.79C27.2319 35.79 36.1804 30.3679 38.8222 23C42.3976 27.3264 49.4089 30.2665 57.4731 30.2665C62.5098 30.2665 67.1358 29.1196 70.7704 27.2043C74.4767 32.4299 80.2554 35.79 86.7476 35.79C93.3727 35.79 99.2548 32.2909 102.95 26.881V51.9834Z" fill="#AFD2DD"/>
<path fill-rule="evenodd" clip-rule="evenodd" d="M68.837 22.8304L68.837 18.7799C63.3461 18.7799 58.8948 13.0921 58.8948 6.07584C58.8948 3.875 59.3328 1.80487 60.1034 0H51.7944C52.5651 1.80487 53.0031 3.875 53.0031 6.07584C53.0031 13.0921 48.5518 18.7799 43.0608 18.7799V22.8304H68.837Z" fill="#CF6D80"/>
<path fill-rule="evenodd" clip-rule="evenodd" d="M58.1583 22.8304V28.9713C57.89 30.2117 57.6286 31.5478 57.3817 32.9575C56.8941 35.7414 56.5253 38.4558 56.2873 40.8744C56.236 40.874 56.1846 40.8738 56.1331 40.8738C56.0454 40.8738 55.958 40.8744 55.8708 40.8756C55.6336 38.4125 55.2587 35.6331 54.7591 32.7808C54.5508 31.5914 54.3322 30.4545 54.1078 29.3833V22.8304H58.1583Z" fill="#CF6D80"/>
<path d="M24.7117 73.2028C18.0025 73.2028 12.8037 72.8667 9.1154 72.1944C8.16698 56.156 7.30637 46.456 6.53358 43.0947L4.95288 43.4308C4.10984 43.5909 3.30192 43.767 2.52913 43.959C1.75634 44.1191 0.93086 44.3592 0.0526902 44.6793L0 43.0467C0 42.5025 0.649846 42.0063 1.94954 41.5581C3.24923 41.0779 4.81237 40.7097 6.63896 40.4536C8.50068 40.1655 10.1516 40.0215 11.5918 40.0215C13.1725 40.0215 14.9816 40.2776 17.0189 40.7898C19.0914 41.302 20.8653 42.0703 22.3406 43.0947C23.816 44.0871 24.5536 45.2716 24.5536 46.6481C24.5536 48.2168 23.8862 49.6093 22.5514 50.8258C21.2517 52.0103 19.5481 52.8586 17.4405 53.3708C20.5316 53.851 23.412 54.7154 26.0816 55.9639C28.7513 57.1804 30.894 58.701 32.5098 60.5257C34.1257 62.3184 34.9336 64.2552 34.9336 66.3361C34.9336 68.737 33.9149 70.4817 31.8776 71.5702C29.8402 72.6586 27.4516 73.2028 24.7117 73.2028ZM23.3418 70.4657C25.9411 70.4657 27.9434 70.2096 29.3484 69.6974C30.7535 69.1532 31.456 68.0007 31.456 66.24C31.456 64.3833 30.8413 62.8307 29.6119 61.5821C28.4176 60.3016 26.9949 59.3092 25.344 58.6049C23.7282 57.8687 21.7084 57.1003 19.2846 56.3C17.3526 55.6918 15.9124 55.1636 14.964 54.7154C14.0507 54.2352 13.5941 53.707 13.5941 53.1307C13.5941 52.7146 13.8224 52.3944 14.279 52.1704C14.7357 51.9463 15.5436 51.6261 16.7028 51.21C18.2835 50.7298 19.5129 50.2176 20.3911 49.6733C21.3044 49.0971 21.761 48.2968 21.761 47.2724C21.761 45.7678 20.7599 44.6153 18.7577 43.815C16.7555 42.9826 14.5074 42.5665 12.0134 42.5665C11.3108 42.5665 10.4678 42.6305 9.48423 42.7586C10.3975 48.1367 11.0298 52.6666 11.3811 56.348C11.7324 59.9975 11.9782 64.2392 12.1187 69.0732C12.6105 69.5213 13.8575 69.8575 15.8597 70.0816C17.862 70.3057 20.356 70.4337 23.3418 70.4657Z" fill="#CF6D80"/>
<path d="M39.703 72.5146C39.4805 71.7036 39.3108 70.8872 39.1937 70.0656C39.0766 69.2332 38.9712 67.8673 38.8775 65.9679C38.8775 65.8399 38.9244 65.7278 39.018 65.6318C39.1234 65.5357 39.2405 65.4877 39.3693 65.4877H39.5274C39.5859 65.8399 39.6269 66.4054 39.6503 67.1844C39.6503 67.2698 39.662 67.5579 39.6855 68.0488C39.7089 68.5289 39.7674 68.9825 39.8611 69.4093C41.2193 69.2919 42.3024 69.0518 43.1103 68.689C43.9299 68.3262 44.3398 67.8087 44.3398 67.1364C44.3398 66.2934 43.9299 65.6051 43.1103 65.0716C42.2907 64.538 41.0554 64.2712 39.4044 64.2712C38.7136 64.2712 38.1282 64.3886 37.6481 64.6234C37.5661 64.6554 37.5076 64.7247 37.4725 64.8315C37.4373 64.9275 37.4081 65.0662 37.3847 65.2476C37.3612 65.4397 37.332 65.5838 37.2968 65.6798C37.2617 65.7758 37.1973 65.8239 37.1036 65.8239C36.9983 65.8239 36.928 65.7545 36.8929 65.6158C36.8695 65.4664 36.8577 65.1302 36.8577 64.6074C36.8577 64.3086 37.0802 64.0738 37.5252 63.9031C37.9701 63.7323 38.5438 63.647 39.2464 63.647C41.2954 63.647 42.8176 63.9404 43.8129 64.5273C44.8081 65.1142 45.3057 66.0159 45.3057 67.2324C45.3057 67.8834 45.0189 68.4276 44.4451 68.8651C43.8714 69.3026 43.1747 69.6281 42.3551 69.8415C41.5355 70.0442 40.751 70.1456 40.0016 70.1456C40.025 70.2737 40.0484 70.391 40.0719 70.4977C40.0953 70.6045 40.1128 70.6952 40.1245 70.7698C40.2885 71.4955 40.3704 72.0557 40.3704 72.4505C40.3704 72.6853 40.3353 72.872 40.265 73.0108C40.2065 73.1495 40.0718 73.1975 39.8611 73.1548L39.703 72.5146Z" fill="#CF6D80"/>
<path d="M47.2826 73.0428C47.025 71.8796 46.8259 70.5031 46.6854 68.9131C46.5566 67.3125 46.4922 65.7652 46.4922 64.2712C46.4922 63.5243 46.5098 62.8627 46.5449 62.2864C46.5449 62.1477 46.662 62.0783 46.8962 62.0783C47.0835 62.0783 47.2006 62.121 47.2475 62.2064C47.306 62.2918 47.3353 62.4252 47.3353 62.6066C47.3353 64.3353 47.3704 65.8132 47.4407 67.0403C47.5109 68.2568 47.6046 69.5694 47.7217 70.9779C47.7919 71.885 47.8388 72.4985 47.8622 72.8187C47.8739 72.9894 47.7744 73.0748 47.5636 73.0748C47.4933 73.0748 47.3997 73.0641 47.2826 73.0428Z" fill="#CF6D80"/>
<path d="M53.7805 73.1548C52.5628 73.1548 51.5031 72.9627 50.6015 72.5786C49.7116 72.1838 49.2667 71.4955 49.2667 70.5137C49.2667 70.1616 49.3838 69.8201 49.618 69.4893C49.8521 69.1585 50.1976 68.8918 50.6542 68.689C51.1109 68.4756 51.667 68.3689 52.3227 68.3689C52.8262 68.3689 53.2536 68.3902 53.6049 68.4329C53.9561 68.4756 54.3601 68.593 54.8167 68.785C55.2734 68.9771 55.7476 69.2812 56.2394 69.6974C56.052 68.9611 55.771 68.3155 55.3963 67.7606C55.0216 67.2057 54.6001 66.7789 54.1318 66.4801C53.6751 66.1707 53.2243 66.0159 52.7794 66.0159C52.5686 66.0159 52.3696 66.0533 52.1822 66.128C52.0066 66.192 51.79 66.288 51.5324 66.4161C51.2397 66.5868 51.023 66.6722 50.8825 66.6722C50.824 66.6722 50.7713 66.6562 50.7245 66.6242C50.6893 66.5815 50.6718 66.5335 50.6718 66.4801C50.6718 66.0533 50.8767 65.7225 51.2865 65.4877C51.708 65.253 52.2174 65.1462 52.8145 65.1676C53.6341 65.2103 54.3835 65.5304 55.0626 66.128C55.7417 66.7149 56.2745 67.4458 56.6609 68.3209C57.059 69.1959 57.258 70.0549 57.258 70.8979C57.258 71.0366 57.2463 71.234 57.2229 71.4901L56.6609 71.4581C56.216 70.6365 55.6422 70.0549 54.9397 69.7134C54.2488 69.3613 53.5522 69.1852 52.8496 69.1852C51.948 69.1852 51.3041 69.3079 50.9177 69.5534C50.5313 69.7988 50.3381 70.1563 50.3381 70.6258C50.3381 71.1167 50.6074 71.5115 51.146 71.8103C51.6846 72.1091 52.3754 72.2584 53.2185 72.2584C53.6868 72.2584 54.0615 72.2371 54.3425 72.1944C54.6235 72.1411 54.9163 72.0717 55.2207 71.9863C55.4666 71.9116 55.6832 71.8583 55.8705 71.8263C56.0579 71.7943 56.2979 71.7783 56.5906 71.7783C56.9185 71.7783 57.1234 71.7996 57.2054 71.8423C57.299 71.885 57.3459 71.981 57.3459 72.1304C57.3459 72.2371 57.1058 72.3705 56.6258 72.5306C56.1457 72.6906 55.6071 72.8347 55.0099 72.9627C54.4128 73.0908 54.003 73.1548 53.7805 73.1548Z" fill="#CF6D80"/>
<path d="M61.5793 73.1548C61.4622 73.1762 61.3861 73.1868 61.351 73.1868C60.988 73.1868 60.7363 72.9414 60.5958 72.4505C60.467 71.9597 60.4026 71.2714 60.4026 70.3857C60.4026 70.0229 60.4143 69.4573 60.4377 68.689C60.4611 68.2195 60.4728 67.8673 60.4728 67.6326C59.0326 67.6326 58.3125 67.4832 58.3125 67.1844C58.3125 67.0884 58.3242 67.0137 58.3477 66.9603C58.3828 66.907 58.453 66.8803 58.5584 66.8803L60.4728 66.7682C60.4611 66.2454 60.4319 65.6745 60.385 65.0555C60.3382 64.5007 60.3089 63.9885 60.2972 63.5189C60.2972 63.4015 60.3499 63.3215 60.4553 63.2788C60.5607 63.2255 60.6719 63.1988 60.789 63.1988C60.9295 63.1988 61.0466 63.2682 61.1402 63.4069C61.2339 63.5349 61.2807 63.6683 61.2807 63.807L61.4037 66.7362L62.8615 66.8003C63.0839 66.7789 63.2713 66.8163 63.4235 66.9123C63.5874 67.0083 63.6752 67.1684 63.6869 67.3925C63.441 67.4885 63.1717 67.5472 62.879 67.5686C62.5863 67.5899 62.0945 67.6006 61.4037 67.6006C61.4037 68.593 61.4564 70.2256 61.5618 72.4985C61.5618 72.7333 61.5618 72.8987 61.5618 72.9947C61.5735 73.0801 61.5793 73.1335 61.5793 73.1548Z" fill="#CF6D80"/>
<path d="M68.9724 61.8863C69.4993 61.8863 70.0028 62.009 70.4829 62.2544C70.9629 62.4892 71.3493 62.7933 71.6421 63.1668C71.9465 63.5403 72.0987 63.9138 72.0987 64.2872H71.7123C71.5367 64.2872 71.3786 64.2392 71.2381 64.1432C71.1093 64.0471 70.9395 63.8924 70.7288 63.679C70.4243 63.3802 70.1492 63.1561 69.9033 63.0067C69.6691 62.8573 69.3647 62.7826 68.99 62.7826C68.346 62.7826 67.8074 63.0547 67.3741 63.599C66.9409 64.1325 66.6833 64.7621 66.6014 65.4877C66.5662 65.8185 66.5487 66.1493 66.5487 66.4801C66.5487 67.0243 66.5897 67.5259 66.6716 67.9847C66.8238 68.0061 67.1809 68.0327 67.743 68.0648C68.305 68.0968 68.7675 68.1235 69.1305 68.1448C69.2593 68.1448 69.511 68.1555 69.8857 68.1768C70.0028 68.1768 70.0848 68.2035 70.1316 68.2568C70.1901 68.2995 70.2194 68.3796 70.2194 68.4969C70.2194 68.785 69.8623 68.9291 69.1481 68.9291C68.5275 68.9291 67.7488 68.8277 66.8121 68.625C66.9409 69.1052 67.1048 69.548 67.3039 69.9535C67.5029 70.3483 67.7605 70.8232 68.0767 71.3781C68.2992 71.7729 68.4631 72.0824 68.5685 72.3065C68.6738 72.5199 68.7265 72.7013 68.7265 72.8507C68.7265 72.9681 68.6855 73.0534 68.6036 73.1068C68.5216 73.1495 68.4045 73.1708 68.2523 73.1708C67.9362 73.1708 67.6376 72.8667 67.3566 72.2584C67.0873 71.6395 66.777 70.7859 66.4257 69.6974L66.1096 68.753C65.852 68.7744 65.53 68.8384 65.1436 68.9451C65.1085 68.9558 64.9855 68.9878 64.7748 69.0412C64.5757 69.0838 64.3942 69.1052 64.2303 69.1052C64.043 69.1052 63.9493 69.0038 63.9493 68.8011C63.9493 68.5343 64.1015 68.3582 64.4059 68.2728C64.7104 68.1768 64.9972 68.1234 65.2665 68.1128C65.5358 68.0914 65.7056 68.0754 65.7759 68.0648C65.7525 67.6593 65.7408 67.2965 65.7408 66.9763C65.7408 65.5998 65.9691 64.41 66.4257 63.4069C66.8941 62.3931 67.743 61.8863 68.9724 61.8863Z" fill="#CF6D80"/>
<path d="M75.3883 73.1708C74.6974 73.1708 74.071 73.0321 73.509 72.7547C72.9587 72.4665 72.5254 72.0717 72.2093 71.5702C71.9049 71.058 71.7526 70.4764 71.7526 69.8255C71.7526 68.7584 72.18 67.9634 73.0348 67.4405C73.9012 66.9176 74.9609 66.6562 76.2138 66.6562C76.7875 66.6562 77.3203 66.7842 77.812 67.0403C78.3155 67.2964 78.7195 67.6646 79.0239 68.1448C79.3283 68.625 79.4805 69.1799 79.4805 69.8095C79.4805 70.4924 79.2873 71.09 78.901 71.6022C78.5146 72.1037 78.0052 72.4932 77.3729 72.7707C76.7524 73.0374 76.0908 73.1708 75.3883 73.1708ZM75.1951 72.2584C76.284 72.2584 77.1095 72.0344 77.6715 71.5862C78.2335 71.138 78.5146 70.4817 78.5146 69.6174C78.5146 69.0305 78.2921 68.5236 77.8472 68.0968C77.4139 67.6699 76.8051 67.4565 76.0206 67.4565C75.4937 67.4565 74.9609 67.5472 74.4223 67.7286C73.8837 67.91 73.4387 68.1821 73.0875 68.545C72.7362 68.9078 72.5606 69.3453 72.5606 69.8575C72.5606 70.2843 72.6777 70.6845 72.9118 71.058C73.146 71.4208 73.4622 71.7142 73.8603 71.9383C74.2701 72.1517 74.715 72.2584 75.1951 72.2584Z" fill="#CF6D80"/>
<path d="M82.423 73.1548C81.9429 72.3011 81.5624 71.2981 81.2813 70.1456C81.012 68.9931 80.8774 67.9954 80.8774 67.1524C80.8774 66.8216 80.9593 66.6082 81.1233 66.5121C81.2169 66.4588 81.2872 66.4321 81.334 66.4321C81.416 66.4321 81.4745 66.4908 81.5097 66.6082C81.5565 66.7256 81.6033 66.939 81.6502 67.2484L81.738 67.8247C81.8668 67.2484 82.1127 66.7949 82.4757 66.4641C82.8503 66.1226 83.307 65.9519 83.8456 65.9519C84.4427 65.9519 84.8877 66.0586 85.1804 66.272C85.4731 66.4748 85.6195 66.8163 85.6195 67.2964C85.0341 67.0403 84.5013 66.9123 84.0212 66.9123C83.5646 66.9123 83.1723 67.0243 82.8445 67.2484C82.5166 67.4725 82.2883 67.8033 82.1595 68.2408C82.0541 68.5396 82.0014 68.8224 82.0014 69.0892C82.0014 69.3773 82.0424 69.6494 82.1244 69.9055C82.2181 70.1509 82.3586 70.4551 82.5459 70.8179C82.7215 71.1914 82.8562 71.5115 82.9499 71.7783C83.0552 72.045 83.1138 72.3331 83.1255 72.6426C83.1255 72.824 83.0552 72.9574 82.9147 73.0428C82.7742 73.1175 82.6103 73.1548 82.423 73.1548Z" fill="#CF6D80"/>
<path d="M97.7131 73.1708C97.5375 73.1708 97.4321 73.1281 97.397 73.0428C97.3619 72.9467 97.3443 72.8027 97.3443 72.6106C97.356 72.5359 97.3619 72.4505 97.3619 72.3545C97.3619 72.2478 97.3677 72.1677 97.3794 72.1144C97.4497 71.6022 97.4848 71.1167 97.4848 70.6578C97.4848 69.6441 97.2975 68.8544 96.9228 68.2889C96.5481 67.7126 95.9568 67.4245 95.1489 67.4245C94.7039 67.4245 94.259 67.5259 93.8141 67.7286C93.3808 67.9314 93.0237 68.1821 92.7427 68.4809C92.4734 68.7797 92.3387 69.0518 92.3387 69.2973C92.3973 69.6067 92.5027 69.9855 92.6549 70.4337C92.6666 70.4871 92.7134 70.6525 92.7954 70.9299C92.8891 71.2074 92.9359 71.4581 92.9359 71.6822L92.9535 71.9863C92.9535 72.1571 92.8598 72.2424 92.6724 72.2424C92.4383 72.2424 92.2451 72.1037 92.0928 71.8263C91.9523 71.5488 91.7943 71.1167 91.6186 70.5298C91.443 69.9535 91.2732 69.4787 91.1093 69.1052C90.9454 68.7317 90.7229 68.4116 90.4419 68.1448C90.1609 67.878 89.8038 67.7446 89.3705 67.7446C88.7734 67.7446 88.305 67.9314 87.9654 68.3049C87.6376 68.6783 87.4737 69.1372 87.4737 69.6814C87.4737 70.0442 87.5088 70.5244 87.5791 71.122C87.6376 71.5702 87.6669 71.9543 87.6669 72.2745C87.6669 72.4665 87.6435 72.6106 87.5966 72.7066C87.5498 72.8027 87.4385 72.8507 87.2629 72.8507C87.0287 72.8507 86.8648 72.7813 86.7711 72.6426C86.6775 72.4932 86.6306 72.2691 86.6306 71.9703C86.6306 71.3834 86.5955 70.6738 86.5252 69.8415C86.5135 69.7348 86.4901 69.4627 86.455 69.0251C86.4199 68.577 86.414 68.1288 86.4374 67.6806L86.455 67.1524C86.5253 67.0884 86.6072 67.0564 86.7009 67.0564C86.8297 67.0564 86.9351 67.131 87.017 67.2804C87.1107 67.4192 87.1575 67.6326 87.1575 67.9207C87.3332 67.6433 87.5908 67.3925 87.9303 67.1684C88.2699 66.9443 88.627 66.8323 89.0017 66.8323C89.6457 66.8323 90.1784 66.955 90.6 67.2004C91.0332 67.4352 91.4254 67.8193 91.7767 68.3529C92.1046 67.8087 92.5963 67.3445 93.252 66.9603C93.9194 66.5762 94.6044 66.3841 95.3069 66.3841C96.0329 66.3841 96.6359 66.6349 97.116 67.1364C97.6078 67.6379 97.9649 68.2408 98.1873 68.9451C98.4215 69.6494 98.5386 70.3003 98.5386 70.8979C98.5386 71.4314 98.4859 71.9437 98.3805 72.4345C98.2869 72.9254 98.0644 73.1708 97.7131 73.1708Z" fill="#CF6D80"/>
</svg>
