<svg width="101" height="63" viewBox="0 0 101 63" fill="none" xmlns="http://www.w3.org/2000/svg">
<rect x="3" y="30" width="98" height="16" fill="#F3B971"/>
<path fill-rule="evenodd" clip-rule="evenodd" d="M100.95 33.9834C89.7679 38.2836 73.3279 41 55 41C33.0071 41 13.7327 37.0886 2.99998 31.2228V15.4344C6.40584 16.9319 10.3693 17.79 14.5993 17.79C25.2319 17.79 34.1804 12.3679 36.8221 5C40.3976 9.32635 47.4088 12.2665 55.4731 12.2665C60.5098 12.2665 65.1358 11.1196 68.7704 9.20435C72.4767 14.4299 78.2554 17.79 84.7476 17.79C91.3726 17.79 97.2547 14.2909 100.95 8.88101V33.9834Z" fill="#718EF3"/>
<path fill-rule="evenodd" clip-rule="evenodd" d="M66.837 24.017L66.837 19.7559C61.3461 19.7559 56.8948 13.7725 56.8948 6.39162C56.8948 4.07639 57.3327 1.89867 58.1034 0H49.7944C50.5651 1.89867 51.003 4.07639 51.003 6.39162C51.003 13.7725 46.5517 19.7559 41.0608 19.7559L41.0608 24.017H66.837Z" fill="#CF6D80"/>
<path fill-rule="evenodd" clip-rule="evenodd" d="M56.1583 24.017V30.477C55.8899 31.7819 55.6285 33.1875 55.3816 34.6704C54.894 37.599 54.5252 40.4544 54.2873 42.9988C54.2359 42.9984 54.1845 42.9981 54.133 42.9981C54.0454 42.9981 53.958 42.9988 53.8707 43C53.6335 40.4089 53.2587 37.4851 52.7591 34.4845C52.5508 33.2333 52.3322 32.0373 52.1077 30.9104V24.017H56.1583Z" fill="#CF6D80"/>
<path d="M24.7117 62.1814C18.0025 62.1814 12.8037 61.8452 9.1154 61.173C8.16698 45.1345 7.30637 35.4346 6.53358 32.0732L4.95288 32.4094C4.10984 32.5694 3.30192 32.7455 2.52913 32.9376C1.75634 33.0977 0.93086 33.3377 0.0526902 33.6579L0 32.0252C0 31.481 0.649846 30.9848 1.94954 30.5366C3.24923 30.0564 4.81237 29.6883 6.63896 29.4322C8.50068 29.1441 10.1516 29 11.5918 29C13.1725 29 14.9816 29.2561 17.0189 29.7683C19.0914 30.2805 20.8653 31.0488 22.3406 32.0732C23.816 33.0656 24.5536 34.2501 24.5536 35.6267C24.5536 37.1953 23.8862 38.5879 22.5514 39.8044C21.2517 40.9888 19.5481 41.8372 17.4405 42.3494C20.5316 42.8296 23.412 43.6939 26.0816 44.9424C28.7513 46.1589 30.894 47.6795 32.5098 49.5043C34.1257 51.297 34.9336 53.2338 34.9336 55.3146C34.9336 57.7156 33.9149 59.4603 31.8776 60.5487C29.8402 61.6372 27.4516 62.1814 24.7117 62.1814ZM23.3418 59.4443C25.9411 59.4443 27.9434 59.1882 29.3484 58.676C30.7535 58.1317 31.456 56.9793 31.456 55.2186C31.456 53.3618 30.8413 51.8092 29.6119 50.5607C28.4176 49.2802 26.9949 48.2878 25.344 47.5835C23.7282 46.8472 21.7084 46.0789 19.2846 45.2786C17.3526 44.6703 15.9124 44.1421 14.964 43.6939C14.0507 43.2137 13.5941 42.6855 13.5941 42.1093C13.5941 41.6931 13.8224 41.373 14.279 41.1489C14.7357 40.9248 15.5436 40.6047 16.7028 40.1885C18.2835 39.7083 19.5129 39.1961 20.3911 38.6519C21.3044 38.0757 21.761 37.2753 21.761 36.2509C21.761 34.7463 20.7599 33.5939 18.7577 32.7935C16.7555 31.9612 14.5074 31.545 12.0134 31.545C11.3108 31.545 10.4678 31.6091 9.48423 31.7371C10.3975 37.1153 11.0298 41.6451 11.3811 45.3266C11.7324 48.9761 11.9782 53.2178 12.1187 58.0517C12.6105 58.4999 13.8575 58.836 15.8597 59.0601C17.862 59.2842 20.356 59.4123 23.3418 59.4443Z" fill="#CF6D80"/>
<path d="M39.703 61.4931C39.4805 60.6821 39.3108 59.8658 39.1937 59.0441C39.0766 58.2118 38.9712 56.8459 38.8775 54.9465C38.8775 54.8184 38.9244 54.7064 39.018 54.6103C39.1234 54.5143 39.2405 54.4663 39.3693 54.4663H39.5274C39.5859 54.8184 39.6269 55.384 39.6503 56.163C39.6503 56.2483 39.662 56.5364 39.6855 57.0273C39.7089 57.5075 39.7674 57.961 39.8611 58.3878C41.2193 58.2705 42.3024 58.0304 43.1103 57.6676C43.9299 57.3047 44.3398 56.7872 44.3398 56.1149C44.3398 55.2719 43.9299 54.5836 43.1103 54.0501C42.2907 53.5166 41.0554 53.2498 39.4044 53.2498C38.7136 53.2498 38.1282 53.3672 37.6481 53.6019C37.5661 53.6339 37.5076 53.7033 37.4725 53.81C37.4373 53.906 37.4081 54.0448 37.3847 54.2262C37.3612 54.4182 37.332 54.5623 37.2968 54.6583C37.2617 54.7544 37.1973 54.8024 37.1036 54.8024C36.9983 54.8024 36.928 54.733 36.8929 54.5943C36.8695 54.4449 36.8577 54.1088 36.8577 53.5859C36.8577 53.2871 37.0802 53.0524 37.5252 52.8816C37.9701 52.7109 38.5438 52.6255 39.2464 52.6255C41.2954 52.6255 42.8176 52.919 43.8129 53.5059C44.8081 54.0928 45.3057 54.9945 45.3057 56.211C45.3057 56.8619 45.0189 57.4061 44.4451 57.8436C43.8714 58.2811 43.1747 58.6066 42.3551 58.82C41.5355 59.0228 40.751 59.1241 40.0016 59.1241C40.025 59.2522 40.0484 59.3696 40.0719 59.4763C40.0953 59.583 40.1128 59.6737 40.1245 59.7484C40.2885 60.474 40.3704 61.0342 40.3704 61.4291C40.3704 61.6638 40.3353 61.8506 40.265 61.9893C40.2065 62.128 40.0718 62.176 39.8611 62.1334L39.703 61.4931Z" fill="#CF6D80"/>
<path d="M47.2826 62.0213C47.025 60.8582 46.8259 59.4816 46.6854 57.8916C46.5566 56.291 46.4922 54.7437 46.4922 53.2498C46.4922 52.5028 46.5098 51.8412 46.5449 51.265C46.5449 51.1263 46.662 51.0569 46.8962 51.0569C47.0835 51.0569 47.2006 51.0996 47.2475 51.1849C47.306 51.2703 47.3353 51.4037 47.3353 51.5851C47.3353 53.3138 47.3704 54.7917 47.4407 56.0189C47.5109 57.2354 47.6046 58.5479 47.7217 59.9565C47.7919 60.8635 47.8388 61.4771 47.8622 61.7972C47.8739 61.968 47.7744 62.0533 47.5636 62.0533C47.4933 62.0533 47.3997 62.0427 47.2826 62.0213Z" fill="#CF6D80"/>
<path d="M53.7805 62.1334C52.5628 62.1334 51.5031 61.9413 50.6015 61.5571C49.7116 61.1623 49.2667 60.474 49.2667 59.4923C49.2667 59.1402 49.3838 58.7987 49.618 58.4679C49.8521 58.1371 50.1976 57.8703 50.6542 57.6676C51.1109 57.4541 51.667 57.3474 52.3227 57.3474C52.8262 57.3474 53.2536 57.3688 53.6049 57.4115C53.9561 57.4541 54.3601 57.5715 54.8167 57.7636C55.2734 57.9557 55.7476 58.2598 56.2394 58.676C56.052 57.9397 55.771 57.2941 55.3963 56.7392C55.0216 56.1843 54.6001 55.7575 54.1318 55.4587C53.6751 55.1492 53.2243 54.9945 52.7794 54.9945C52.5686 54.9945 52.3696 55.0318 52.1822 55.1065C52.0066 55.1706 51.79 55.2666 51.5324 55.3946C51.2397 55.5654 51.023 55.6507 50.8825 55.6507C50.824 55.6507 50.7713 55.6347 50.7245 55.6027C50.6893 55.56 50.6718 55.512 50.6718 55.4587C50.6718 55.0318 50.8767 54.701 51.2865 54.4663C51.708 54.2315 52.2174 54.1248 52.8145 54.1461C53.6341 54.1888 54.3835 54.509 55.0626 55.1065C55.7417 55.6934 56.2745 56.4244 56.6609 57.2994C57.059 58.1744 57.258 59.0334 57.258 59.8764C57.258 60.0152 57.2463 60.2126 57.2229 60.4687L56.6609 60.4367C56.216 59.615 55.6422 59.0334 54.9397 58.692C54.2488 58.3398 53.5522 58.1638 52.8496 58.1638C51.948 58.1638 51.3041 58.2865 50.9177 58.5319C50.5313 58.7773 50.3381 59.1348 50.3381 59.6043C50.3381 60.0952 50.6074 60.49 51.146 60.7888C51.6846 61.0876 52.3754 61.237 53.2185 61.237C53.6868 61.237 54.0615 61.2157 54.3425 61.173C54.6235 61.1196 54.9163 61.0503 55.2207 60.9649C55.4666 60.8902 55.6832 60.8368 55.8705 60.8048C56.0579 60.7728 56.2979 60.7568 56.5906 60.7568C56.9185 60.7568 57.1234 60.7781 57.2054 60.8208C57.299 60.8635 57.3459 60.9596 57.3459 61.1089C57.3459 61.2157 57.1058 61.349 56.6258 61.5091C56.1457 61.6692 55.6071 61.8132 55.0099 61.9413C54.4128 62.0693 54.003 62.1334 53.7805 62.1334Z" fill="#CF6D80"/>
<path d="M61.5793 62.1334C61.4622 62.1547 61.3861 62.1654 61.351 62.1654C60.988 62.1654 60.7363 61.9199 60.5958 61.4291C60.467 60.9382 60.4026 60.2499 60.4026 59.3642C60.4026 59.0014 60.4143 58.4359 60.4377 57.6676C60.4611 57.198 60.4728 56.8459 60.4728 56.6111C59.0326 56.6111 58.3125 56.4617 58.3125 56.163C58.3125 56.0669 58.3242 55.9922 58.3477 55.9389C58.3828 55.8855 58.453 55.8588 58.5584 55.8588L60.4728 55.7468C60.4611 55.2239 60.4319 54.653 60.385 54.0341C60.3382 53.4792 60.3089 52.967 60.2972 52.4975C60.2972 52.3801 60.3499 52.3001 60.4553 52.2574C60.5607 52.204 60.6719 52.1773 60.789 52.1773C60.9295 52.1773 61.0466 52.2467 61.1402 52.3854C61.2339 52.5135 61.2807 52.6469 61.2807 52.7856L61.4037 55.7148L62.8615 55.7788C63.0839 55.7575 63.2713 55.7948 63.4235 55.8908C63.5874 55.9869 63.6752 56.1469 63.6869 56.371C63.441 56.4671 63.1717 56.5258 62.879 56.5471C62.5863 56.5684 62.0945 56.5791 61.4037 56.5791C61.4037 57.5715 61.4564 59.2042 61.5618 61.4771C61.5618 61.7119 61.5618 61.8773 61.5618 61.9733C61.5735 62.0587 61.5793 62.112 61.5793 62.1334Z" fill="#CF6D80"/>
<path d="M68.9724 50.8648C69.4993 50.8648 70.0028 50.9875 70.4829 51.233C70.9629 51.4677 71.3493 51.7718 71.6421 52.1453C71.9465 52.5188 72.0987 52.8923 72.0987 53.2658H71.7123C71.5367 53.2658 71.3786 53.2178 71.2381 53.1217C71.1093 53.0257 70.9395 52.871 70.7288 52.6575C70.4243 52.3588 70.1492 52.1347 69.9033 51.9853C69.6691 51.8359 69.3647 51.7612 68.99 51.7612C68.346 51.7612 67.8074 52.0333 67.3741 52.5775C66.9409 53.1111 66.6833 53.7406 66.6014 54.4663C66.5662 54.7971 66.5487 55.1279 66.5487 55.4587C66.5487 56.0029 66.5897 56.5044 66.6716 56.9633C66.8238 56.9846 67.1809 57.0113 67.743 57.0433C68.305 57.0753 68.7675 57.102 69.1305 57.1233C69.2593 57.1233 69.511 57.134 69.8857 57.1554C70.0028 57.1554 70.0848 57.182 70.1316 57.2354C70.1901 57.2781 70.2194 57.3581 70.2194 57.4755C70.2194 57.7636 69.8623 57.9077 69.1481 57.9077C68.5275 57.9077 67.7488 57.8063 66.8121 57.6035C66.9409 58.0837 67.1048 58.5266 67.3039 58.9321C67.5029 59.3269 67.7605 59.8018 68.0767 60.3566C68.2992 60.7515 68.4631 61.0609 68.5685 61.285C68.6738 61.4984 68.7265 61.6798 68.7265 61.8292C68.7265 61.9466 68.6855 62.032 68.6036 62.0853C68.5216 62.128 68.4045 62.1494 68.2523 62.1494C67.9362 62.1494 67.6376 61.8452 67.3566 61.237C67.0873 60.6181 66.777 59.7644 66.4257 58.676L66.1096 57.7316C65.852 57.7529 65.53 57.817 65.1436 57.9237C65.1085 57.9343 64.9855 57.9663 64.7748 58.0197C64.5757 58.0624 64.3942 58.0837 64.2303 58.0837C64.043 58.0837 63.9493 57.9824 63.9493 57.7796C63.9493 57.5128 64.1015 57.3368 64.4059 57.2514C64.7104 57.1554 64.9972 57.102 65.2665 57.0913C65.5358 57.07 65.7056 57.054 65.7759 57.0433C65.7525 56.6378 65.7408 56.275 65.7408 55.9549C65.7408 54.5783 65.9691 53.3885 66.4257 52.3854C66.8941 51.3717 67.743 50.8648 68.9724 50.8648Z" fill="#CF6D80"/>
<path d="M75.3883 62.1494C74.6974 62.1494 74.071 62.0106 73.509 61.7332C72.9587 61.4451 72.5254 61.0503 72.2093 60.5487C71.9049 60.0365 71.7526 59.4549 71.7526 58.804C71.7526 57.7369 72.18 56.9419 73.0348 56.4191C73.9012 55.8962 74.9609 55.6347 76.2138 55.6347C76.7875 55.6347 77.3203 55.7628 77.812 56.0189C78.3155 56.275 78.7195 56.6431 79.0239 57.1233C79.3283 57.6035 79.4805 58.1584 79.4805 58.788C79.4805 59.471 79.2873 60.0685 78.901 60.5807C78.5146 61.0823 78.0052 61.4718 77.3729 61.7492C76.7524 62.016 76.0908 62.1494 75.3883 62.1494ZM75.1951 61.237C76.284 61.237 77.1095 61.0129 77.6715 60.5647C78.2335 60.1165 78.5146 59.4603 78.5146 58.5959C78.5146 58.009 78.2921 57.5022 77.8472 57.0753C77.4139 56.6485 76.8051 56.4351 76.0206 56.4351C75.4937 56.4351 74.9609 56.5258 74.4223 56.7072C73.8837 56.8886 73.4387 57.1607 73.0875 57.5235C72.7362 57.8863 72.5606 58.3238 72.5606 58.836C72.5606 59.2629 72.6777 59.663 72.9118 60.0365C73.146 60.3993 73.4622 60.6928 73.8603 60.9169C74.2701 61.1303 74.715 61.237 75.1951 61.237Z" fill="#CF6D80"/>
<path d="M82.423 62.1334C81.9429 61.2797 81.5624 60.2766 81.2813 59.1241C81.012 57.9717 80.8774 56.9739 80.8774 56.1309C80.8774 55.8001 80.9593 55.5867 81.1233 55.4907C81.2169 55.4373 81.2872 55.4106 81.334 55.4106C81.416 55.4106 81.4745 55.4693 81.5097 55.5867C81.5565 55.7041 81.6033 55.9175 81.6502 56.227L81.738 56.8032C81.8668 56.227 82.1127 55.7735 82.4757 55.4427C82.8503 55.1012 83.307 54.9305 83.8456 54.9305C84.4427 54.9305 84.8877 55.0372 85.1804 55.2506C85.4731 55.4533 85.6195 55.7948 85.6195 56.275C85.0341 56.0189 84.5013 55.8908 84.0212 55.8908C83.5646 55.8908 83.1723 56.0029 82.8445 56.227C82.5166 56.4511 82.2883 56.7819 82.1595 57.2194C82.0541 57.5182 82.0014 57.8009 82.0014 58.0677C82.0014 58.3558 82.0424 58.6279 82.1244 58.884C82.2181 59.1295 82.3586 59.4336 82.5459 59.7964C82.7215 60.1699 82.8562 60.49 82.9499 60.7568C83.0552 61.0236 83.1138 61.3117 83.1255 61.6212C83.1255 61.8026 83.0552 61.9359 82.9147 62.0213C82.7742 62.096 82.6103 62.1334 82.423 62.1334Z" fill="#CF6D80"/>
<path d="M97.7131 62.1494C97.5375 62.1494 97.4321 62.1067 97.397 62.0213C97.3619 61.9253 97.3443 61.7812 97.3443 61.5891C97.356 61.5144 97.3619 61.4291 97.3619 61.333C97.3619 61.2263 97.3677 61.1463 97.3794 61.0929C97.4497 60.5807 97.4848 60.0952 97.4848 59.6364C97.4848 58.6226 97.2975 57.833 96.9228 57.2674C96.5481 56.6912 95.9568 56.403 95.1489 56.403C94.7039 56.403 94.259 56.5044 93.8141 56.7072C93.3808 56.9099 93.0237 57.1607 92.7427 57.4595C92.4734 57.7583 92.3387 58.0304 92.3387 58.2758C92.3973 58.5853 92.5027 58.9641 92.6549 59.4123C92.6666 59.4656 92.7134 59.631 92.7954 59.9085C92.8891 60.1859 92.9359 60.4367 92.9359 60.6608L92.9535 60.9649C92.9535 61.1356 92.8598 61.221 92.6724 61.221C92.4383 61.221 92.2451 61.0823 92.0928 60.8048C91.9523 60.5274 91.7943 60.0952 91.6186 59.5083C91.443 58.9321 91.2732 58.4572 91.1093 58.0837C90.9454 57.7102 90.7229 57.3901 90.4419 57.1233C90.1609 56.8566 89.8038 56.7232 89.3705 56.7232C88.7734 56.7232 88.305 56.9099 87.9654 57.2834C87.6376 57.6569 87.4737 58.1157 87.4737 58.66C87.4737 59.0228 87.5088 59.503 87.5791 60.1005C87.6376 60.5487 87.6669 60.9329 87.6669 61.253C87.6669 61.4451 87.6435 61.5891 87.5966 61.6852C87.5498 61.7812 87.4385 61.8292 87.2629 61.8292C87.0287 61.8292 86.8648 61.7599 86.7711 61.6212C86.6775 61.4718 86.6306 61.2477 86.6306 60.9489C86.6306 60.362 86.5955 59.6524 86.5252 58.82C86.5135 58.7133 86.4901 58.4412 86.455 58.0037C86.4199 57.5555 86.414 57.1073 86.4374 56.6592L86.455 56.1309C86.5253 56.0669 86.6072 56.0349 86.7009 56.0349C86.8297 56.0349 86.9351 56.1096 87.017 56.259C87.1107 56.3977 87.1575 56.6111 87.1575 56.8993C87.3332 56.6218 87.5908 56.371 87.9303 56.1469C88.2699 55.9229 88.627 55.8108 89.0017 55.8108C89.6457 55.8108 90.1784 55.9335 90.6 56.179C91.0332 56.4137 91.4254 56.7979 91.7767 57.3314C92.1046 56.7872 92.5963 56.323 93.252 55.9389C93.9194 55.5547 94.6044 55.3626 95.3069 55.3626C96.0329 55.3626 96.6359 55.6134 97.116 56.1149C97.6078 56.6165 97.9649 57.2194 98.1873 57.9237C98.4215 58.6279 98.5386 59.2789 98.5386 59.8764C98.5386 60.41 98.4859 60.9222 98.3805 61.4131C98.2869 61.9039 98.0644 62.1494 97.7131 62.1494Z" fill="#CF6D80"/>
</svg>
