<svg width="202" height="47" viewBox="0 0 202 47" fill="none" xmlns="http://www.w3.org/2000/svg">
<path d="M0 5C0 2.23858 2.23858 0 5 0H93C95.7614 0 98 2.23858 98 5V8C98 19.0457 89.0457 28 78 28H13C5.8203 28 0 22.1797 0 15V5Z" fill="white"/>
<rect y="28" width="98" height="19" rx="5" fill="#4C5C79"/>
<path fill-rule="evenodd" clip-rule="evenodd" d="M97.9498 37.3987C86.7679 42.0572 70.3279 45 52 45C30.0071 45 10.7327 40.7626 -1.52588e-05 34.408L-1.52588e-05 17.3039C3.40584 18.9262 7.3693 19.8559 11.5993 19.8559C22.2319 19.8559 31.1804 13.9819 33.8221 6C37.3976 10.6869 44.4088 13.8721 52.4731 13.8721C57.5098 13.8721 62.1358 12.6296 65.7704 10.5547C69.4767 16.2157 75.2554 19.8559 81.7476 19.8559C88.3726 19.8559 94.2547 16.0651 97.9498 10.2044V37.3987Z" fill="#4E8DD2"/>
<path fill-rule="evenodd" clip-rule="evenodd" d="M51.5143 8.79705C51.5143 15.4913 55.3135 20.9181 60 20.9181L60 24.7828H38V20.9181C42.6865 20.9181 46.4857 15.4913 46.4857 8.79705C46.4857 6.6972 46.1119 4.72205 45.4541 3H52.5459C51.8881 4.72205 51.5143 6.6972 51.5143 8.79705Z" fill="#4C5C79"/>
<path fill-rule="evenodd" clip-rule="evenodd" d="M50.8857 24.7828V30.642C50.6566 31.8255 50.4336 33.1003 50.2228 34.4453C49.8066 37.1014 49.4919 39.6912 49.2888 41.9989C49.245 41.9985 49.2011 41.9983 49.1571 41.9983C49.0824 41.9983 49.0077 41.9989 48.9333 42C48.7308 39.6499 48.4109 36.9981 47.9845 34.2766C47.8067 33.1419 47.6201 32.0571 47.4286 31.035V24.7828H50.8857Z" fill="#4C5C79"/>
<path d="M127.712 42.1814C121.002 42.1814 115.804 41.8452 112.115 41.173C111.167 25.1345 110.306 15.4346 109.534 12.0732L107.953 12.4094C107.11 12.5694 106.302 12.7455 105.529 12.9376C104.756 13.0977 103.931 13.3377 103.053 13.6579L103 12.0252C103 11.481 103.65 10.9848 104.95 10.5366C106.249 10.0564 107.812 9.68828 109.639 9.43217C111.501 9.14406 113.152 9 114.592 9C116.173 9 117.982 9.2561 120.019 9.76831C122.091 10.2805 123.865 11.0488 125.341 12.0732C126.816 13.0656 127.554 14.2501 127.554 15.6267C127.554 17.1953 126.886 18.5879 125.551 19.8044C124.252 20.9888 122.548 21.8372 120.44 22.3494C123.532 22.8296 126.412 23.6939 129.082 24.9424C131.751 26.1589 133.894 27.6795 135.51 29.5043C137.126 31.297 137.934 33.2338 137.934 35.3146C137.934 37.7156 136.915 39.4603 134.878 40.5487C132.84 41.6372 130.452 42.1814 127.712 42.1814ZM126.342 39.4443C128.941 39.4443 130.943 39.1882 132.348 38.676C133.754 38.1317 134.456 36.9793 134.456 35.2186C134.456 33.3618 133.841 31.8092 132.612 30.5607C131.418 29.2802 129.995 28.2878 128.344 27.5835C126.728 26.8472 124.708 26.0789 122.285 25.2786C120.353 24.6703 118.912 24.1421 117.964 23.6939C117.051 23.2137 116.594 22.6855 116.594 22.1093C116.594 21.6931 116.822 21.373 117.279 21.1489C117.736 20.9248 118.544 20.6047 119.703 20.1885C121.283 19.7083 122.513 19.1961 123.391 18.6519C124.304 18.0757 124.761 17.2753 124.761 16.2509C124.761 14.7463 123.76 13.5939 121.758 12.7935C119.755 11.9612 117.507 11.545 115.013 11.545C114.311 11.545 113.468 11.6091 112.484 11.7371C113.398 17.1153 114.03 21.6451 114.381 25.3266C114.732 28.9761 114.978 33.2178 115.119 38.0517C115.611 38.4999 116.858 38.836 118.86 39.0601C120.862 39.2842 123.356 39.4123 126.342 39.4443Z" fill="white"/>
<path d="M142.703 41.4931C142.481 40.6821 142.311 39.8658 142.194 39.0441C142.077 38.2118 141.971 36.8459 141.878 34.9465C141.878 34.8184 141.924 34.7064 142.018 34.6103C142.123 34.5143 142.241 34.4663 142.369 34.4663H142.527C142.586 34.8184 142.627 35.384 142.65 36.163C142.65 36.2483 142.662 36.5364 142.685 37.0273C142.709 37.5075 142.767 37.961 142.861 38.3878C144.219 38.2705 145.302 38.0304 146.11 37.6676C146.93 37.3047 147.34 36.7872 147.34 36.1149C147.34 35.2719 146.93 34.5836 146.11 34.0501C145.291 33.5166 144.055 33.2498 142.404 33.2498C141.714 33.2498 141.128 33.3672 140.648 33.6019C140.566 33.6339 140.508 33.7033 140.472 33.81C140.437 33.906 140.408 34.0448 140.385 34.2262C140.361 34.4182 140.332 34.5623 140.297 34.6583C140.262 34.7544 140.197 34.8024 140.104 34.8024C139.998 34.8024 139.928 34.733 139.893 34.5943C139.869 34.4449 139.858 34.1088 139.858 33.5859C139.858 33.2871 140.08 33.0524 140.525 32.8816C140.97 32.7109 141.544 32.6255 142.246 32.6255C144.295 32.6255 145.818 32.919 146.813 33.5059C147.808 34.0928 148.306 34.9945 148.306 36.211C148.306 36.8619 148.019 37.4061 147.445 37.8436C146.871 38.2811 146.175 38.6066 145.355 38.82C144.535 39.0228 143.751 39.1241 143.002 39.1241C143.025 39.2522 143.048 39.3696 143.072 39.4763C143.095 39.583 143.113 39.6737 143.125 39.7484C143.288 40.474 143.37 41.0342 143.37 41.4291C143.37 41.6638 143.335 41.8506 143.265 41.9893C143.207 42.128 143.072 42.176 142.861 42.1334L142.703 41.4931Z" fill="white"/>
<path d="M150.283 42.0213C150.025 40.8582 149.826 39.4816 149.685 37.8916C149.557 36.291 149.492 34.7437 149.492 33.2498C149.492 32.5028 149.51 31.8412 149.545 31.265C149.545 31.1263 149.662 31.0569 149.896 31.0569C150.084 31.0569 150.201 31.0996 150.247 31.1849C150.306 31.2703 150.335 31.4037 150.335 31.5851C150.335 33.3138 150.37 34.7917 150.441 36.0189C150.511 37.2354 150.605 38.5479 150.722 39.9565C150.792 40.8635 150.839 41.4771 150.862 41.7972C150.874 41.968 150.774 42.0533 150.564 42.0533C150.493 42.0533 150.4 42.0427 150.283 42.0213Z" fill="white"/>
<path d="M156.78 42.1334C155.563 42.1334 154.503 41.9413 153.602 41.5571C152.712 41.1623 152.267 40.474 152.267 39.4923C152.267 39.1402 152.384 38.7987 152.618 38.4679C152.852 38.1371 153.198 37.8703 153.654 37.6676C154.111 37.4541 154.667 37.3474 155.323 37.3474C155.826 37.3474 156.254 37.3688 156.605 37.4115C156.956 37.4541 157.36 37.5715 157.817 37.7636C158.273 37.9557 158.748 38.2598 159.239 38.676C159.052 37.9397 158.771 37.2941 158.396 36.7392C158.022 36.1843 157.6 35.7575 157.132 35.4587C156.675 35.1492 156.224 34.9945 155.779 34.9945C155.569 34.9945 155.37 35.0318 155.182 35.1065C155.007 35.1706 154.79 35.2666 154.532 35.3946C154.24 35.5654 154.023 35.6507 153.883 35.6507C153.824 35.6507 153.771 35.6347 153.724 35.6027C153.689 35.56 153.672 35.512 153.672 35.4587C153.672 35.0318 153.877 34.701 154.286 34.4663C154.708 34.2315 155.217 34.1248 155.815 34.1461C156.634 34.1888 157.384 34.509 158.063 35.1065C158.742 35.6934 159.274 36.4244 159.661 37.2994C160.059 38.1744 160.258 39.0334 160.258 39.8764C160.258 40.0152 160.246 40.2126 160.223 40.4687L159.661 40.4367C159.216 39.615 158.642 39.0334 157.94 38.692C157.249 38.3398 156.552 38.1638 155.85 38.1638C154.948 38.1638 154.304 38.2865 153.918 38.5319C153.531 38.7773 153.338 39.1348 153.338 39.6043C153.338 40.0952 153.607 40.49 154.146 40.7888C154.685 41.0876 155.375 41.237 156.218 41.237C156.687 41.237 157.062 41.2157 157.343 41.173C157.624 41.1196 157.916 41.0503 158.221 40.9649C158.467 40.8902 158.683 40.8368 158.871 40.8048C159.058 40.7728 159.298 40.7568 159.591 40.7568C159.918 40.7568 160.123 40.7781 160.205 40.8208C160.299 40.8635 160.346 40.9596 160.346 41.1089C160.346 41.2157 160.106 41.349 159.626 41.5091C159.146 41.6692 158.607 41.8132 158.01 41.9413C157.413 42.0693 157.003 42.1334 156.78 42.1334Z" fill="white"/>
<path d="M164.579 42.1334C164.462 42.1547 164.386 42.1654 164.351 42.1654C163.988 42.1654 163.736 41.9199 163.596 41.4291C163.467 40.9382 163.403 40.2499 163.403 39.3642C163.403 39.0014 163.414 38.4359 163.438 37.6676C163.461 37.198 163.473 36.8459 163.473 36.6111C162.033 36.6111 161.313 36.4617 161.313 36.163C161.313 36.0669 161.324 35.9922 161.348 35.9389C161.383 35.8855 161.453 35.8588 161.558 35.8588L163.473 35.7468C163.461 35.2239 163.432 34.653 163.385 34.0341C163.338 33.4792 163.309 32.967 163.297 32.4975C163.297 32.3801 163.35 32.3001 163.455 32.2574C163.561 32.204 163.672 32.1773 163.789 32.1773C163.929 32.1773 164.047 32.2467 164.14 32.3854C164.234 32.5135 164.281 32.6469 164.281 32.7856L164.404 35.7148L165.861 35.7788C166.084 35.7575 166.271 35.7948 166.423 35.8908C166.587 35.9869 166.675 36.1469 166.687 36.371C166.441 36.4671 166.172 36.5258 165.879 36.5471C165.586 36.5684 165.095 36.5791 164.404 36.5791C164.404 37.5715 164.456 39.2042 164.562 41.4771C164.562 41.7119 164.562 41.8773 164.562 41.9733C164.573 42.0587 164.579 42.112 164.579 42.1334Z" fill="white"/>
<path d="M171.972 30.8648C172.499 30.8648 173.003 30.9875 173.483 31.233C173.963 31.4677 174.349 31.7718 174.642 32.1453C174.946 32.5188 175.099 32.8923 175.099 33.2658H174.712C174.537 33.2658 174.379 33.2178 174.238 33.1217C174.109 33.0257 173.94 32.871 173.729 32.6575C173.424 32.3588 173.149 32.1347 172.903 31.9853C172.669 31.8359 172.365 31.7612 171.99 31.7612C171.346 31.7612 170.807 32.0333 170.374 32.5775C169.941 33.1111 169.683 33.7406 169.601 34.4663C169.566 34.7971 169.549 35.1279 169.549 35.4587C169.549 36.0029 169.59 36.5044 169.672 36.9633C169.824 36.9846 170.181 37.0113 170.743 37.0433C171.305 37.0753 171.768 37.102 172.13 37.1233C172.259 37.1233 172.511 37.134 172.886 37.1554C173.003 37.1554 173.085 37.182 173.132 37.2354C173.19 37.2781 173.219 37.3581 173.219 37.4755C173.219 37.7636 172.862 37.9077 172.148 37.9077C171.527 37.9077 170.749 37.8063 169.812 37.6035C169.941 38.0837 170.105 38.5266 170.304 38.9321C170.503 39.3269 170.761 39.8018 171.077 40.3566C171.299 40.7515 171.463 41.0609 171.568 41.285C171.674 41.4984 171.727 41.6798 171.727 41.8292C171.727 41.9466 171.686 42.032 171.604 42.0853C171.522 42.128 171.405 42.1494 171.252 42.1494C170.936 42.1494 170.638 41.8452 170.357 41.237C170.087 40.6181 169.777 39.7644 169.426 38.676L169.11 37.7316C168.852 37.7529 168.53 37.817 168.144 37.9237C168.108 37.9343 167.986 37.9663 167.775 38.0197C167.576 38.0624 167.394 38.0837 167.23 38.0837C167.043 38.0837 166.949 37.9824 166.949 37.7796C166.949 37.5128 167.102 37.3368 167.406 37.2514C167.71 37.1554 167.997 37.102 168.267 37.0913C168.536 37.07 168.706 37.054 168.776 37.0433C168.752 36.6378 168.741 36.275 168.741 35.9549C168.741 34.5783 168.969 33.3885 169.426 32.3854C169.894 31.3717 170.743 30.8648 171.972 30.8648Z" fill="white"/>
<path d="M178.388 42.1494C177.697 42.1494 177.071 42.0106 176.509 41.7332C175.959 41.4451 175.525 41.0503 175.209 40.5487C174.905 40.0365 174.753 39.4549 174.753 38.804C174.753 37.7369 175.18 36.9419 176.035 36.4191C176.901 35.8962 177.961 35.6347 179.214 35.6347C179.787 35.6347 180.32 35.7628 180.812 36.0189C181.316 36.275 181.719 36.6431 182.024 37.1233C182.328 37.6035 182.481 38.1584 182.481 38.788C182.481 39.471 182.287 40.0685 181.901 40.5807C181.515 41.0823 181.005 41.4718 180.373 41.7492C179.752 42.016 179.091 42.1494 178.388 42.1494ZM178.195 41.237C179.284 41.237 180.109 41.0129 180.672 40.5647C181.234 40.1165 181.515 39.4603 181.515 38.5959C181.515 38.009 181.292 37.5022 180.847 37.0753C180.414 36.6485 179.805 36.4351 179.021 36.4351C178.494 36.4351 177.961 36.5258 177.422 36.7072C176.884 36.8886 176.439 37.1607 176.087 37.5235C175.736 37.8863 175.561 38.3238 175.561 38.836C175.561 39.2629 175.678 39.663 175.912 40.0365C176.146 40.3993 176.462 40.6928 176.86 40.9169C177.27 41.1303 177.715 41.237 178.195 41.237Z" fill="white"/>
<path d="M185.423 42.1334C184.943 41.2797 184.562 40.2766 184.281 39.1241C184.012 37.9717 183.877 36.9739 183.877 36.1309C183.877 35.8001 183.959 35.5867 184.123 35.4907C184.217 35.4373 184.287 35.4106 184.334 35.4106C184.416 35.4106 184.475 35.4693 184.51 35.5867C184.557 35.7041 184.603 35.9175 184.65 36.227L184.738 36.8032C184.867 36.227 185.113 35.7735 185.476 35.4427C185.85 35.1012 186.307 34.9305 186.846 34.9305C187.443 34.9305 187.888 35.0372 188.18 35.2506C188.473 35.4533 188.62 35.7948 188.62 36.275C188.034 36.0189 187.501 35.8908 187.021 35.8908C186.565 35.8908 186.172 36.0029 185.844 36.227C185.517 36.4511 185.288 36.7819 185.16 37.2194C185.054 37.5182 185.001 37.8009 185.001 38.0677C185.001 38.3558 185.042 38.6279 185.124 38.884C185.218 39.1295 185.359 39.4336 185.546 39.7964C185.722 40.1699 185.856 40.49 185.95 40.7568C186.055 41.0236 186.114 41.3117 186.125 41.6212C186.125 41.8026 186.055 41.9359 185.915 42.0213C185.774 42.096 185.61 42.1334 185.423 42.1334Z" fill="white"/>
<path d="M200.713 42.1494C200.538 42.1494 200.432 42.1067 200.397 42.0213C200.362 41.9253 200.344 41.7812 200.344 41.5891C200.356 41.5144 200.362 41.4291 200.362 41.333C200.362 41.2263 200.368 41.1463 200.379 41.0929C200.45 40.5807 200.485 40.0952 200.485 39.6364C200.485 38.6226 200.297 37.833 199.923 37.2674C199.548 36.6912 198.957 36.403 198.149 36.403C197.704 36.403 197.259 36.5044 196.814 36.7072C196.381 36.9099 196.024 37.1607 195.743 37.4595C195.473 37.7583 195.339 38.0304 195.339 38.2758C195.397 38.5853 195.503 38.9641 195.655 39.4123C195.667 39.4656 195.713 39.631 195.795 39.9085C195.889 40.1859 195.936 40.4367 195.936 40.6608L195.953 40.9649C195.953 41.1356 195.86 41.221 195.672 41.221C195.438 41.221 195.245 41.0823 195.093 40.8048C194.952 40.5274 194.794 40.0952 194.619 39.5083C194.443 38.9321 194.273 38.4572 194.109 38.0837C193.945 37.7102 193.723 37.3901 193.442 37.1233C193.161 36.8566 192.804 36.7232 192.371 36.7232C191.773 36.7232 191.305 36.9099 190.965 37.2834C190.638 37.6569 190.474 38.1157 190.474 38.66C190.474 39.0228 190.509 39.503 190.579 40.1005C190.638 40.5487 190.667 40.9329 190.667 41.253C190.667 41.4451 190.643 41.5891 190.597 41.6852C190.55 41.7812 190.439 41.8292 190.263 41.8292C190.029 41.8292 189.865 41.7599 189.771 41.6212C189.677 41.4718 189.631 41.2477 189.631 40.9489C189.631 40.362 189.596 39.6524 189.525 38.82C189.514 38.7133 189.49 38.4412 189.455 38.0037C189.42 37.5555 189.414 37.1073 189.437 36.6592L189.455 36.1309C189.525 36.0669 189.607 36.0349 189.701 36.0349C189.83 36.0349 189.935 36.1096 190.017 36.259C190.111 36.3977 190.158 36.6111 190.158 36.8992C190.333 36.6218 190.591 36.371 190.93 36.1469C191.27 35.9229 191.627 35.8108 192.002 35.8108C192.646 35.8108 193.178 35.9335 193.6 36.179C194.033 36.4137 194.425 36.7979 194.777 37.3314C195.105 36.7872 195.596 36.323 196.252 35.9389C196.919 35.5547 197.604 35.3626 198.307 35.3626C199.033 35.3626 199.636 35.6134 200.116 36.1149C200.608 36.6165 200.965 37.2194 201.187 37.9237C201.422 38.6279 201.539 39.2789 201.539 39.8764C201.539 40.41 201.486 40.9222 201.381 41.4131C201.287 41.9039 201.064 42.1494 200.713 42.1494Z" fill="white"/>
</svg>
