<svg width="103" height="56" viewBox="0 0 103 56" fill="none" xmlns="http://www.w3.org/2000/svg">
<rect x="5" y="30" width="98" height="16" fill="#F3B971"/>
<path fill-rule="evenodd" clip-rule="evenodd" d="M102.95 33.9834C91.7679 38.2836 75.3279 41 57 41C35.0071 41 15.7327 37.0886 4.99998 31.2228V15.4344C8.40584 16.9319 12.3693 17.79 16.5993 17.79C27.2319 17.79 36.1804 12.3679 38.8221 5C42.3976 9.32635 49.4088 12.2665 57.4731 12.2665C62.5098 12.2665 67.1358 11.1196 70.7704 9.20435C74.4767 14.4299 80.2554 17.79 86.7476 17.79C93.3726 17.79 99.2547 14.2909 102.95 8.88101V33.9834Z" fill="#AFD2DD"/>
<path fill-rule="evenodd" clip-rule="evenodd" d="M68.837 24.017L68.837 19.7559C63.3461 19.7559 58.8948 13.7725 58.8948 6.39162C58.8948 4.07639 59.3327 1.89867 60.1034 0H51.7944C52.5651 1.89867 53.003 4.07639 53.003 6.39162C53.003 13.7725 48.5517 19.7559 43.0608 19.7559L43.0608 24.017H68.837Z" fill="#CF6D80"/>
<path fill-rule="evenodd" clip-rule="evenodd" d="M58.1583 24.017V30.477C57.8899 31.7819 57.6285 33.1875 57.3816 34.6704C56.894 37.599 56.5252 40.4544 56.2873 42.9988C56.2359 42.9984 56.1845 42.9981 56.133 42.9981C56.0454 42.9981 55.958 42.9988 55.8707 43C55.6335 40.4089 55.2587 37.4851 54.7591 34.4845C54.5508 33.2333 54.3322 32.0373 54.1077 30.9104V24.017H58.1583Z" fill="#CF6D80"/>
<path d="M24.7117 55.2028C18.0025 55.2028 12.8037 54.8667 9.1154 54.1944C8.16698 38.156 7.30637 28.456 6.53358 25.0947L4.95288 25.4308C4.10984 25.5909 3.30192 25.767 2.52913 25.959C1.75634 26.1191 0.93086 26.3592 0.0526902 26.6793L0 25.0467C0 24.5025 0.649846 24.0063 1.94954 23.5581C3.24923 23.0779 4.81237 22.7097 6.63896 22.4536C8.50068 22.1655 10.1516 22.0215 11.5918 22.0215C13.1725 22.0215 14.9816 22.2776 17.0189 22.7898C19.0914 23.302 20.8653 24.0703 22.3406 25.0947C23.816 26.0871 24.5536 27.2716 24.5536 28.6481C24.5536 30.2168 23.8862 31.6093 22.5514 32.8258C21.2517 34.0103 19.5481 34.8586 17.4405 35.3708C20.5316 35.851 23.412 36.7154 26.0816 37.9639C28.7513 39.1804 30.894 40.701 32.5098 42.5257C34.1257 44.3184 34.9336 46.2552 34.9336 48.3361C34.9336 50.737 33.9149 52.4817 31.8776 53.5702C29.8402 54.6586 27.4516 55.2028 24.7117 55.2028ZM23.3418 52.4657C25.9411 52.4657 27.9434 52.2096 29.3484 51.6974C30.7535 51.1532 31.456 50.0007 31.456 48.24C31.456 46.3833 30.8413 44.8307 29.6119 43.5821C28.4176 42.3016 26.9949 41.3092 25.344 40.6049C23.7282 39.8687 21.7084 39.1003 19.2846 38.3C17.3526 37.6918 15.9124 37.1636 14.964 36.7154C14.0507 36.2352 13.5941 35.707 13.5941 35.1307C13.5941 34.7146 13.8224 34.3944 14.279 34.1704C14.7357 33.9463 15.5436 33.6261 16.7028 33.21C18.2835 32.7298 19.5129 32.2176 20.3911 31.6733C21.3044 31.0971 21.761 30.2968 21.761 29.2724C21.761 27.7678 20.7599 26.6153 18.7577 25.815C16.7555 24.9826 14.5074 24.5665 12.0134 24.5665C11.3108 24.5665 10.4678 24.6305 9.48423 24.7586C10.3975 30.1367 11.0298 34.6666 11.3811 38.348C11.7324 41.9975 11.9782 46.2392 12.1187 51.0732C12.6105 51.5213 13.8575 51.8575 15.8597 52.0816C17.862 52.3057 20.356 52.4337 23.3418 52.4657Z" fill="#CF6D80"/>
<path d="M39.703 54.5146C39.4805 53.7036 39.3108 52.8872 39.1937 52.0656C39.0766 51.2332 38.9712 49.8673 38.8775 47.9679C38.8775 47.8399 38.9244 47.7278 39.018 47.6318C39.1234 47.5357 39.2405 47.4877 39.3693 47.4877H39.5274C39.5859 47.8399 39.6269 48.4054 39.6503 49.1844C39.6503 49.2698 39.662 49.5579 39.6855 50.0488C39.7089 50.5289 39.7674 50.9825 39.8611 51.4093C41.2193 51.2919 42.3024 51.0518 43.1103 50.689C43.9299 50.3262 44.3398 49.8087 44.3398 49.1364C44.3398 48.2934 43.9299 47.6051 43.1103 47.0716C42.2907 46.538 41.0554 46.2712 39.4044 46.2712C38.7136 46.2712 38.1282 46.3886 37.6481 46.6234C37.5661 46.6554 37.5076 46.7247 37.4725 46.8315C37.4373 46.9275 37.4081 47.0662 37.3847 47.2476C37.3612 47.4397 37.332 47.5838 37.2968 47.6798C37.2617 47.7758 37.1973 47.8239 37.1036 47.8239C36.9983 47.8239 36.928 47.7545 36.8929 47.6158C36.8695 47.4664 36.8577 47.1302 36.8577 46.6074C36.8577 46.3086 37.0802 46.0738 37.5252 45.9031C37.9701 45.7323 38.5438 45.647 39.2464 45.647C41.2954 45.647 42.8176 45.9404 43.8129 46.5273C44.8081 47.1142 45.3057 48.0159 45.3057 49.2324C45.3057 49.8834 45.0189 50.4276 44.4451 50.8651C43.8714 51.3026 43.1747 51.6281 42.3551 51.8415C41.5355 52.0442 40.751 52.1456 40.0016 52.1456C40.025 52.2737 40.0484 52.391 40.0719 52.4977C40.0953 52.6045 40.1128 52.6952 40.1245 52.7698C40.2885 53.4955 40.3704 54.0557 40.3704 54.4505C40.3704 54.6853 40.3353 54.872 40.265 55.0108C40.2065 55.1495 40.0718 55.1975 39.8611 55.1548L39.703 54.5146Z" fill="#CF6D80"/>
<path d="M47.2826 55.0428C47.025 53.8796 46.8259 52.5031 46.6854 50.9131C46.5566 49.3125 46.4922 47.7652 46.4922 46.2712C46.4922 45.5243 46.5098 44.8627 46.5449 44.2864C46.5449 44.1477 46.662 44.0783 46.8962 44.0783C47.0835 44.0783 47.2006 44.121 47.2475 44.2064C47.306 44.2918 47.3353 44.4252 47.3353 44.6066C47.3353 46.3353 47.3704 47.8132 47.4407 49.0403C47.5109 50.2568 47.6046 51.5694 47.7217 52.9779C47.7919 53.885 47.8388 54.4985 47.8622 54.8187C47.8739 54.9894 47.7744 55.0748 47.5636 55.0748C47.4933 55.0748 47.3997 55.0641 47.2826 55.0428Z" fill="#CF6D80"/>
<path d="M53.7805 55.1548C52.5628 55.1548 51.5031 54.9627 50.6015 54.5786C49.7116 54.1838 49.2667 53.4955 49.2667 52.5137C49.2667 52.1616 49.3838 51.8201 49.618 51.4893C49.8521 51.1585 50.1976 50.8918 50.6542 50.689C51.1109 50.4756 51.667 50.3689 52.3227 50.3689C52.8262 50.3689 53.2536 50.3902 53.6049 50.4329C53.9561 50.4756 54.3601 50.593 54.8167 50.785C55.2734 50.9771 55.7476 51.2812 56.2394 51.6974C56.052 50.9611 55.771 50.3155 55.3963 49.7606C55.0216 49.2057 54.6001 48.7789 54.1318 48.4801C53.6751 48.1707 53.2243 48.0159 52.7794 48.0159C52.5686 48.0159 52.3696 48.0533 52.1822 48.128C52.0066 48.192 51.79 48.288 51.5324 48.4161C51.2397 48.5868 51.023 48.6722 50.8825 48.6722C50.824 48.6722 50.7713 48.6562 50.7245 48.6242C50.6893 48.5815 50.6718 48.5335 50.6718 48.4801C50.6718 48.0533 50.8767 47.7225 51.2865 47.4877C51.708 47.253 52.2174 47.1462 52.8145 47.1676C53.6341 47.2103 54.3835 47.5304 55.0626 48.128C55.7417 48.7149 56.2745 49.4458 56.6609 50.3209C57.059 51.1959 57.258 52.0549 57.258 52.8979C57.258 53.0366 57.2463 53.234 57.2229 53.4901L56.6609 53.4581C56.216 52.6365 55.6422 52.0549 54.9397 51.7134C54.2488 51.3613 53.5522 51.1852 52.8496 51.1852C51.948 51.1852 51.3041 51.3079 50.9177 51.5534C50.5313 51.7988 50.3381 52.1563 50.3381 52.6258C50.3381 53.1167 50.6074 53.5115 51.146 53.8103C51.6846 54.1091 52.3754 54.2584 53.2185 54.2584C53.6868 54.2584 54.0615 54.2371 54.3425 54.1944C54.6235 54.1411 54.9163 54.0717 55.2207 53.9863C55.4666 53.9116 55.6832 53.8583 55.8705 53.8263C56.0579 53.7943 56.2979 53.7783 56.5906 53.7783C56.9185 53.7783 57.1234 53.7996 57.2054 53.8423C57.299 53.885 57.3459 53.981 57.3459 54.1304C57.3459 54.2371 57.1058 54.3705 56.6258 54.5306C56.1457 54.6906 55.6071 54.8347 55.0099 54.9627C54.4128 55.0908 54.003 55.1548 53.7805 55.1548Z" fill="#CF6D80"/>
<path d="M61.5793 55.1548C61.4622 55.1762 61.3861 55.1868 61.351 55.1868C60.988 55.1868 60.7363 54.9414 60.5958 54.4505C60.467 53.9597 60.4026 53.2714 60.4026 52.3857C60.4026 52.0229 60.4143 51.4573 60.4377 50.689C60.4611 50.2195 60.4728 49.8673 60.4728 49.6326C59.0326 49.6326 58.3125 49.4832 58.3125 49.1844C58.3125 49.0884 58.3242 49.0137 58.3477 48.9603C58.3828 48.907 58.453 48.8803 58.5584 48.8803L60.4728 48.7682C60.4611 48.2454 60.4319 47.6745 60.385 47.0555C60.3382 46.5007 60.3089 45.9885 60.2972 45.5189C60.2972 45.4015 60.3499 45.3215 60.4553 45.2788C60.5607 45.2255 60.6719 45.1988 60.789 45.1988C60.9295 45.1988 61.0466 45.2682 61.1402 45.4069C61.2339 45.5349 61.2807 45.6683 61.2807 45.807L61.4037 48.7362L62.8615 48.8003C63.0839 48.7789 63.2713 48.8163 63.4235 48.9123C63.5874 49.0083 63.6752 49.1684 63.6869 49.3925C63.441 49.4885 63.1717 49.5472 62.879 49.5686C62.5863 49.5899 62.0945 49.6006 61.4037 49.6006C61.4037 50.593 61.4564 52.2256 61.5618 54.4985C61.5618 54.7333 61.5618 54.8987 61.5618 54.9947C61.5735 55.0801 61.5793 55.1335 61.5793 55.1548Z" fill="#CF6D80"/>
<path d="M68.9724 43.8863C69.4993 43.8863 70.0028 44.009 70.4829 44.2544C70.9629 44.4892 71.3493 44.7933 71.6421 45.1668C71.9465 45.5403 72.0987 45.9138 72.0987 46.2872H71.7123C71.5367 46.2872 71.3786 46.2392 71.2381 46.1432C71.1093 46.0471 70.9395 45.8924 70.7288 45.679C70.4243 45.3802 70.1492 45.1561 69.9033 45.0067C69.6691 44.8573 69.3647 44.7826 68.99 44.7826C68.346 44.7826 67.8074 45.0547 67.3741 45.599C66.9409 46.1325 66.6833 46.7621 66.6014 47.4877C66.5662 47.8185 66.5487 48.1493 66.5487 48.4801C66.5487 49.0243 66.5897 49.5259 66.6716 49.9847C66.8238 50.0061 67.1809 50.0327 67.743 50.0648C68.305 50.0968 68.7675 50.1235 69.1305 50.1448C69.2593 50.1448 69.511 50.1555 69.8857 50.1768C70.0028 50.1768 70.0848 50.2035 70.1316 50.2568C70.1901 50.2995 70.2194 50.3796 70.2194 50.4969C70.2194 50.785 69.8623 50.9291 69.1481 50.9291C68.5275 50.9291 67.7488 50.8277 66.8121 50.625C66.9409 51.1052 67.1048 51.548 67.3039 51.9535C67.5029 52.3483 67.7605 52.8232 68.0767 53.3781C68.2992 53.7729 68.4631 54.0824 68.5685 54.3065C68.6738 54.5199 68.7265 54.7013 68.7265 54.8507C68.7265 54.9681 68.6855 55.0534 68.6036 55.1068C68.5216 55.1495 68.4045 55.1708 68.2523 55.1708C67.9362 55.1708 67.6376 54.8667 67.3566 54.2584C67.0873 53.6395 66.777 52.7859 66.4257 51.6974L66.1096 50.753C65.852 50.7744 65.53 50.8384 65.1436 50.9451C65.1085 50.9558 64.9855 50.9878 64.7748 51.0412C64.5757 51.0838 64.3942 51.1052 64.2303 51.1052C64.043 51.1052 63.9493 51.0038 63.9493 50.8011C63.9493 50.5343 64.1015 50.3582 64.4059 50.2728C64.7104 50.1768 64.9972 50.1234 65.2665 50.1128C65.5358 50.0914 65.7056 50.0754 65.7759 50.0648C65.7525 49.6593 65.7408 49.2965 65.7408 48.9763C65.7408 47.5998 65.9691 46.41 66.4257 45.4069C66.8941 44.3931 67.743 43.8863 68.9724 43.8863Z" fill="#CF6D80"/>
<path d="M75.3883 55.1708C74.6974 55.1708 74.071 55.0321 73.509 54.7547C72.9587 54.4665 72.5254 54.0717 72.2093 53.5702C71.9049 53.058 71.7526 52.4764 71.7526 51.8255C71.7526 50.7584 72.18 49.9634 73.0348 49.4405C73.9012 48.9176 74.9609 48.6562 76.2138 48.6562C76.7875 48.6562 77.3203 48.7842 77.812 49.0403C78.3155 49.2964 78.7195 49.6646 79.0239 50.1448C79.3283 50.625 79.4805 51.1799 79.4805 51.8095C79.4805 52.4924 79.2873 53.09 78.901 53.6022C78.5146 54.1037 78.0052 54.4932 77.3729 54.7707C76.7524 55.0374 76.0908 55.1708 75.3883 55.1708ZM75.1951 54.2584C76.284 54.2584 77.1095 54.0344 77.6715 53.5862C78.2335 53.138 78.5146 52.4817 78.5146 51.6174C78.5146 51.0305 78.2921 50.5236 77.8472 50.0968C77.4139 49.6699 76.8051 49.4565 76.0206 49.4565C75.4937 49.4565 74.9609 49.5472 74.4223 49.7286C73.8837 49.91 73.4387 50.1821 73.0875 50.545C72.7362 50.9078 72.5606 51.3453 72.5606 51.8575C72.5606 52.2843 72.6777 52.6845 72.9118 53.058C73.146 53.4208 73.4622 53.7142 73.8603 53.9383C74.2701 54.1517 74.715 54.2584 75.1951 54.2584Z" fill="#CF6D80"/>
<path d="M82.423 55.1548C81.9429 54.3011 81.5624 53.2981 81.2813 52.1456C81.012 50.9931 80.8774 49.9954 80.8774 49.1524C80.8774 48.8216 80.9593 48.6082 81.1233 48.5121C81.2169 48.4588 81.2872 48.4321 81.334 48.4321C81.416 48.4321 81.4745 48.4908 81.5097 48.6082C81.5565 48.7256 81.6033 48.939 81.6502 49.2484L81.738 49.8247C81.8668 49.2484 82.1127 48.7949 82.4757 48.4641C82.8503 48.1226 83.307 47.9519 83.8456 47.9519C84.4427 47.9519 84.8877 48.0586 85.1804 48.272C85.4731 48.4748 85.6195 48.8163 85.6195 49.2964C85.0341 49.0403 84.5013 48.9123 84.0212 48.9123C83.5646 48.9123 83.1723 49.0243 82.8445 49.2484C82.5166 49.4725 82.2883 49.8033 82.1595 50.2408C82.0541 50.5396 82.0014 50.8224 82.0014 51.0892C82.0014 51.3773 82.0424 51.6494 82.1244 51.9055C82.2181 52.1509 82.3586 52.4551 82.5459 52.8179C82.7215 53.1914 82.8562 53.5115 82.9499 53.7783C83.0552 54.045 83.1138 54.3331 83.1255 54.6426C83.1255 54.824 83.0552 54.9574 82.9147 55.0428C82.7742 55.1175 82.6103 55.1548 82.423 55.1548Z" fill="#CF6D80"/>
<path d="M97.7131 55.1708C97.5375 55.1708 97.4321 55.1281 97.397 55.0428C97.3619 54.9467 97.3443 54.8027 97.3443 54.6106C97.356 54.5359 97.3619 54.4505 97.3619 54.3545C97.3619 54.2478 97.3677 54.1677 97.3794 54.1144C97.4497 53.6022 97.4848 53.1167 97.4848 52.6578C97.4848 51.6441 97.2975 50.8544 96.9228 50.2889C96.5481 49.7126 95.9568 49.4245 95.1489 49.4245C94.7039 49.4245 94.259 49.5259 93.8141 49.7286C93.3808 49.9314 93.0237 50.1821 92.7427 50.4809C92.4734 50.7797 92.3387 51.0518 92.3387 51.2973C92.3973 51.6067 92.5027 51.9855 92.6549 52.4337C92.6666 52.4871 92.7134 52.6525 92.7954 52.9299C92.8891 53.2074 92.9359 53.4581 92.9359 53.6822L92.9535 53.9863C92.9535 54.1571 92.8598 54.2424 92.6724 54.2424C92.4383 54.2424 92.2451 54.1037 92.0928 53.8263C91.9523 53.5488 91.7943 53.1167 91.6186 52.5298C91.443 51.9535 91.2732 51.4787 91.1093 51.1052C90.9454 50.7317 90.7229 50.4116 90.4419 50.1448C90.1609 49.878 89.8038 49.7446 89.3705 49.7446C88.7734 49.7446 88.305 49.9314 87.9654 50.3049C87.6376 50.6783 87.4737 51.1372 87.4737 51.6814C87.4737 52.0442 87.5088 52.5244 87.5791 53.122C87.6376 53.5702 87.6669 53.9543 87.6669 54.2745C87.6669 54.4665 87.6435 54.6106 87.5966 54.7066C87.5498 54.8027 87.4385 54.8507 87.2629 54.8507C87.0287 54.8507 86.8648 54.7813 86.7711 54.6426C86.6775 54.4932 86.6306 54.2691 86.6306 53.9703C86.6306 53.3834 86.5955 52.6738 86.5252 51.8415C86.5135 51.7348 86.4901 51.4627 86.455 51.0251C86.4199 50.577 86.414 50.1288 86.4374 49.6806L86.455 49.1524C86.5253 49.0884 86.6072 49.0564 86.7009 49.0564C86.8297 49.0564 86.9351 49.131 87.017 49.2804C87.1107 49.4192 87.1575 49.6326 87.1575 49.9207C87.3332 49.6433 87.5908 49.3925 87.9303 49.1684C88.2699 48.9443 88.627 48.8323 89.0017 48.8323C89.6457 48.8323 90.1784 48.955 90.6 49.2004C91.0332 49.4352 91.4254 49.8193 91.7767 50.3529C92.1046 49.8087 92.5963 49.3445 93.252 48.9603C93.9194 48.5762 94.6044 48.3841 95.3069 48.3841C96.0329 48.3841 96.6359 48.6349 97.116 49.1364C97.6078 49.6379 97.9649 50.2408 98.1873 50.9451C98.4215 51.6494 98.5386 52.3003 98.5386 52.8979C98.5386 53.4314 98.4859 53.9437 98.3805 54.4345C98.2869 54.9254 98.0644 55.1708 97.7131 55.1708Z" fill="#CF6D80"/>
</svg>
