<svg width="101" height="72" viewBox="0 0 101 72" fill="none" xmlns="http://www.w3.org/2000/svg">
<rect x="3.5" y="30.5" width="97" height="15" fill="#4980BD" stroke="white"/>
<path fill-rule="evenodd" clip-rule="evenodd" d="M100.95 33.9834C89.7679 38.2836 73.3279 41 55 41C33.0071 41 13.7327 37.0886 2.99998 31.2228L2.99998 15.4344C6.40584 16.9319 10.3693 17.79 14.5993 17.79C25.2319 17.79 34.1804 12.3679 36.8221 5C40.3976 9.32635 47.4088 12.2666 55.4731 12.2666C60.5098 12.2666 65.1357 11.1196 68.7704 9.20433C72.4767 14.4299 78.2554 17.7901 84.7476 17.7901C91.3726 17.7901 97.2547 14.2909 100.95 8.88102V33.9834Z" fill="white"/>
<mask id="path-3-inside-1" fill="white">
<path fill-rule="evenodd" clip-rule="evenodd" d="M66.837 24.017L66.837 19.7559C61.3461 19.7559 56.8948 13.7725 56.8948 6.39162C56.8948 4.07639 57.3327 1.89867 58.1034 0H49.7944C50.5651 1.89867 51.003 4.07639 51.003 6.39162C51.003 13.7725 46.5517 19.7559 41.0608 19.7559L41.0608 24.017H66.837Z"/>
</mask>
<path fill-rule="evenodd" clip-rule="evenodd" d="M66.837 24.017L66.837 19.7559C61.3461 19.7559 56.8948 13.7725 56.8948 6.39162C56.8948 4.07639 57.3327 1.89867 58.1034 0H49.7944C50.5651 1.89867 51.003 4.07639 51.003 6.39162C51.003 13.7725 46.5517 19.7559 41.0608 19.7559L41.0608 24.017H66.837Z" fill="#4980BD"/>
<path d="M66.837 19.7559L67.837 19.7559L67.837 18.7559H66.837V19.7559ZM66.837 24.017V25.017H67.837L67.837 24.017L66.837 24.017ZM58.1034 0L59.03 0.376096L59.5885 -1H58.1034V0ZM49.7944 0V-1H48.3093L48.8678 0.376097L49.7944 0ZM41.0608 19.7559V18.7559H40.0608L40.0608 19.7559L41.0608 19.7559ZM41.0608 24.017L40.0608 24.017L40.0608 25.017H41.0608V24.017ZM65.837 19.7559L65.837 24.017L67.837 24.017L67.837 19.7559L65.837 19.7559ZM55.8948 6.39162C55.8948 10.2756 57.0647 13.831 59.0045 16.4385C60.9443 19.0459 63.7027 20.7559 66.837 20.7559V18.7559C64.4804 18.7559 62.2677 17.4742 60.6091 15.2447C58.9505 13.0153 57.8948 9.8885 57.8948 6.39162H55.8948ZM57.1768 -0.376096C56.3562 1.64572 55.8948 3.95151 55.8948 6.39162H57.8948C57.8948 4.20128 58.3093 2.15163 59.03 0.376096L57.1768 -0.376096ZM49.7944 1H58.1034V-1H49.7944V1ZM52.003 6.39162C52.003 3.95151 51.5416 1.64572 50.721 -0.376097L48.8678 0.376097C49.5885 2.15163 50.003 4.20128 50.003 6.39162H52.003ZM41.0608 20.7559C44.1951 20.7559 46.9535 19.0459 48.8934 16.4385C50.8332 13.831 52.003 10.2756 52.003 6.39162H50.003C50.003 9.8885 48.9473 13.0153 47.2887 15.2447C45.6301 17.4742 43.4174 18.7559 41.0608 18.7559V20.7559ZM42.0608 24.017L42.0608 19.7559L40.0608 19.7559L40.0608 24.017L42.0608 24.017ZM41.0608 25.017H66.837V23.017H41.0608V25.017Z" fill="white" mask="url(#path-3-inside-1)"/>
<path fill-rule="evenodd" clip-rule="evenodd" d="M56.1583 24.017V30.477C55.8899 31.7819 55.6285 33.1875 55.3816 34.6704C54.894 37.599 54.5252 40.4544 54.2873 42.9988C54.2359 42.9984 54.1845 42.9981 54.133 42.9981C54.0454 42.9981 53.958 42.9988 53.8707 43C53.6335 40.4089 53.2587 37.4851 52.7591 34.4845C52.5508 33.2333 52.3322 32.0373 52.1077 30.9104V24.017H56.1583Z" fill="#4980BD"/>
<path d="M24.7117 71.1814C18.0025 71.1814 12.8037 70.8452 9.1154 70.173C8.16698 54.1345 7.30637 44.4346 6.53358 41.0732L4.95288 41.4094C4.10984 41.5694 3.30192 41.7455 2.52913 41.9376C1.75634 42.0977 0.93086 42.3377 0.0526902 42.6579L0 41.0252C0 40.481 0.649846 39.9848 1.94954 39.5366C3.24923 39.0564 4.81237 38.6883 6.63896 38.4322C8.50068 38.1441 10.1516 38 11.5918 38C13.1725 38 14.9816 38.2561 17.0189 38.7683C19.0914 39.2805 20.8653 40.0488 22.3406 41.0732C23.816 42.0656 24.5536 43.2501 24.5536 44.6267C24.5536 46.1953 23.8862 47.5879 22.5514 48.8044C21.2517 49.9888 19.5481 50.8372 17.4405 51.3494C20.5316 51.8296 23.412 52.6939 26.0816 53.9424C28.7513 55.1589 30.894 56.6795 32.5098 58.5043C34.1257 60.297 34.9336 62.2338 34.9336 64.3146C34.9336 66.7156 33.9149 68.4603 31.8776 69.5487C29.8402 70.6372 27.4516 71.1814 24.7117 71.1814ZM23.3418 68.4443C25.9411 68.4443 27.9434 68.1882 29.3484 67.676C30.7535 67.1317 31.456 65.9793 31.456 64.2186C31.456 62.3618 30.8413 60.8092 29.6119 59.5607C28.4176 58.2802 26.9949 57.2878 25.344 56.5835C23.7282 55.8472 21.7084 55.0789 19.2846 54.2786C17.3526 53.6703 15.9124 53.1421 14.964 52.6939C14.0507 52.2137 13.5941 51.6855 13.5941 51.1093C13.5941 50.6931 13.8224 50.373 14.279 50.1489C14.7357 49.9248 15.5436 49.6047 16.7028 49.1885C18.2835 48.7083 19.5129 48.1961 20.3911 47.6519C21.3044 47.0757 21.761 46.2753 21.761 45.2509C21.761 43.7463 20.7599 42.5939 18.7577 41.7935C16.7555 40.9612 14.5074 40.545 12.0134 40.545C11.3108 40.545 10.4678 40.6091 9.48423 40.7371C10.3975 46.1153 11.0298 50.6451 11.3811 54.3266C11.7324 57.9761 11.9782 62.2178 12.1187 67.0517C12.6105 67.4999 13.8575 67.836 15.8597 68.0601C17.862 68.2842 20.356 68.4123 23.3418 68.4443Z" fill="white"/>
<path d="M39.703 70.4931C39.4805 69.6821 39.3108 68.8658 39.1937 68.0441C39.0766 67.2118 38.9712 65.8459 38.8775 63.9465C38.8775 63.8184 38.9244 63.7064 39.018 63.6103C39.1234 63.5143 39.2405 63.4663 39.3693 63.4663H39.5274C39.5859 63.8184 39.6269 64.384 39.6503 65.163C39.6503 65.2483 39.662 65.5364 39.6855 66.0273C39.7089 66.5075 39.7674 66.961 39.8611 67.3878C41.2193 67.2705 42.3024 67.0304 43.1103 66.6676C43.9299 66.3047 44.3398 65.7872 44.3398 65.1149C44.3398 64.2719 43.9299 63.5836 43.1103 63.0501C42.2907 62.5166 41.0554 62.2498 39.4044 62.2498C38.7136 62.2498 38.1282 62.3672 37.6481 62.6019C37.5661 62.6339 37.5076 62.7033 37.4725 62.81C37.4373 62.906 37.4081 63.0448 37.3847 63.2262C37.3612 63.4182 37.332 63.5623 37.2968 63.6583C37.2617 63.7544 37.1973 63.8024 37.1036 63.8024C36.9983 63.8024 36.928 63.733 36.8929 63.5943C36.8695 63.4449 36.8577 63.1088 36.8577 62.5859C36.8577 62.2871 37.0802 62.0524 37.5252 61.8816C37.9701 61.7109 38.5438 61.6255 39.2464 61.6255C41.2954 61.6255 42.8176 61.919 43.8129 62.5059C44.8081 63.0928 45.3057 63.9945 45.3057 65.211C45.3057 65.8619 45.0189 66.4061 44.4451 66.8436C43.8714 67.2811 43.1747 67.6066 42.3551 67.82C41.5355 68.0228 40.751 68.1241 40.0016 68.1241C40.025 68.2522 40.0484 68.3696 40.0719 68.4763C40.0953 68.583 40.1128 68.6737 40.1245 68.7484C40.2885 69.474 40.3704 70.0342 40.3704 70.4291C40.3704 70.6638 40.3353 70.8506 40.265 70.9893C40.2065 71.128 40.0718 71.176 39.8611 71.1334L39.703 70.4931Z" fill="white"/>
<path d="M47.2826 71.0213C47.025 69.8582 46.8259 68.4816 46.6854 66.8916C46.5566 65.291 46.4922 63.7437 46.4922 62.2498C46.4922 61.5028 46.5098 60.8412 46.5449 60.265C46.5449 60.1263 46.662 60.0569 46.8962 60.0569C47.0835 60.0569 47.2006 60.0996 47.2475 60.1849C47.306 60.2703 47.3353 60.4037 47.3353 60.5851C47.3353 62.3138 47.3704 63.7917 47.4407 65.0189C47.5109 66.2354 47.6046 67.5479 47.7217 68.9565C47.7919 69.8635 47.8388 70.4771 47.8622 70.7972C47.8739 70.968 47.7744 71.0533 47.5636 71.0533C47.4933 71.0533 47.3997 71.0427 47.2826 71.0213Z" fill="white"/>
<path d="M53.7805 71.1334C52.5628 71.1334 51.5031 70.9413 50.6015 70.5571C49.7116 70.1623 49.2667 69.474 49.2667 68.4923C49.2667 68.1402 49.3838 67.7987 49.618 67.4679C49.8521 67.1371 50.1976 66.8703 50.6542 66.6676C51.1109 66.4541 51.667 66.3474 52.3227 66.3474C52.8262 66.3474 53.2536 66.3688 53.6049 66.4115C53.9561 66.4541 54.3601 66.5715 54.8167 66.7636C55.2734 66.9557 55.7476 67.2598 56.2394 67.676C56.052 66.9397 55.771 66.2941 55.3963 65.7392C55.0216 65.1843 54.6001 64.7575 54.1318 64.4587C53.6751 64.1492 53.2243 63.9945 52.7794 63.9945C52.5686 63.9945 52.3696 64.0318 52.1822 64.1065C52.0066 64.1706 51.79 64.2666 51.5324 64.3946C51.2397 64.5654 51.023 64.6507 50.8825 64.6507C50.824 64.6507 50.7713 64.6347 50.7245 64.6027C50.6893 64.56 50.6718 64.512 50.6718 64.4587C50.6718 64.0318 50.8767 63.701 51.2865 63.4663C51.708 63.2315 52.2174 63.1248 52.8145 63.1461C53.6341 63.1888 54.3835 63.509 55.0626 64.1065C55.7417 64.6934 56.2745 65.4244 56.6609 66.2994C57.059 67.1744 57.258 68.0334 57.258 68.8764C57.258 69.0152 57.2463 69.2126 57.2229 69.4687L56.6609 69.4367C56.216 68.615 55.6422 68.0334 54.9397 67.692C54.2488 67.3398 53.5522 67.1638 52.8496 67.1638C51.948 67.1638 51.3041 67.2865 50.9177 67.5319C50.5313 67.7773 50.3381 68.1348 50.3381 68.6043C50.3381 69.0952 50.6074 69.49 51.146 69.7888C51.6846 70.0876 52.3754 70.237 53.2185 70.237C53.6868 70.237 54.0615 70.2157 54.3425 70.173C54.6235 70.1196 54.9163 70.0503 55.2207 69.9649C55.4666 69.8902 55.6832 69.8368 55.8705 69.8048C56.0579 69.7728 56.2979 69.7568 56.5906 69.7568C56.9185 69.7568 57.1234 69.7781 57.2054 69.8208C57.299 69.8635 57.3459 69.9596 57.3459 70.1089C57.3459 70.2157 57.1058 70.349 56.6258 70.5091C56.1457 70.6692 55.6071 70.8132 55.0099 70.9413C54.4128 71.0693 54.003 71.1334 53.7805 71.1334Z" fill="white"/>
<path d="M61.5793 71.1334C61.4622 71.1547 61.3861 71.1654 61.351 71.1654C60.988 71.1654 60.7363 70.9199 60.5958 70.4291C60.467 69.9382 60.4026 69.2499 60.4026 68.3642C60.4026 68.0014 60.4143 67.4359 60.4377 66.6676C60.4611 66.198 60.4728 65.8459 60.4728 65.6111C59.0326 65.6111 58.3125 65.4617 58.3125 65.163C58.3125 65.0669 58.3242 64.9922 58.3477 64.9389C58.3828 64.8855 58.453 64.8588 58.5584 64.8588L60.4728 64.7468C60.4611 64.2239 60.4319 63.653 60.385 63.0341C60.3382 62.4792 60.3089 61.967 60.2972 61.4975C60.2972 61.3801 60.3499 61.3001 60.4553 61.2574C60.5607 61.204 60.6719 61.1773 60.789 61.1773C60.9295 61.1773 61.0466 61.2467 61.1402 61.3854C61.2339 61.5135 61.2807 61.6469 61.2807 61.7856L61.4037 64.7148L62.8615 64.7788C63.0839 64.7575 63.2713 64.7948 63.4235 64.8908C63.5874 64.9869 63.6752 65.1469 63.6869 65.371C63.441 65.4671 63.1717 65.5258 62.879 65.5471C62.5863 65.5684 62.0945 65.5791 61.4037 65.5791C61.4037 66.5715 61.4564 68.2042 61.5618 70.4771C61.5618 70.7119 61.5618 70.8773 61.5618 70.9733C61.5735 71.0587 61.5793 71.112 61.5793 71.1334Z" fill="white"/>
<path d="M68.9724 59.8648C69.4993 59.8648 70.0028 59.9875 70.4829 60.233C70.9629 60.4677 71.3493 60.7718 71.6421 61.1453C71.9465 61.5188 72.0987 61.8923 72.0987 62.2658H71.7123C71.5367 62.2658 71.3786 62.2178 71.2381 62.1217C71.1093 62.0257 70.9395 61.871 70.7288 61.6575C70.4243 61.3588 70.1492 61.1347 69.9033 60.9853C69.6691 60.8359 69.3647 60.7612 68.99 60.7612C68.346 60.7612 67.8074 61.0333 67.3741 61.5775C66.9409 62.1111 66.6833 62.7406 66.6014 63.4663C66.5662 63.7971 66.5487 64.1279 66.5487 64.4587C66.5487 65.0029 66.5897 65.5044 66.6716 65.9633C66.8238 65.9846 67.1809 66.0113 67.743 66.0433C68.305 66.0753 68.7675 66.102 69.1305 66.1233C69.2593 66.1233 69.511 66.134 69.8857 66.1554C70.0028 66.1554 70.0848 66.182 70.1316 66.2354C70.1901 66.2781 70.2194 66.3581 70.2194 66.4755C70.2194 66.7636 69.8623 66.9077 69.1481 66.9077C68.5275 66.9077 67.7488 66.8063 66.8121 66.6035C66.9409 67.0837 67.1048 67.5266 67.3039 67.9321C67.5029 68.3269 67.7605 68.8018 68.0767 69.3566C68.2992 69.7515 68.4631 70.0609 68.5685 70.285C68.6738 70.4984 68.7265 70.6798 68.7265 70.8292C68.7265 70.9466 68.6855 71.032 68.6036 71.0853C68.5216 71.128 68.4045 71.1494 68.2523 71.1494C67.9362 71.1494 67.6376 70.8452 67.3566 70.237C67.0873 69.6181 66.777 68.7644 66.4257 67.676L66.1096 66.7316C65.852 66.7529 65.53 66.817 65.1436 66.9237C65.1085 66.9343 64.9855 66.9663 64.7748 67.0197C64.5757 67.0624 64.3942 67.0837 64.2303 67.0837C64.043 67.0837 63.9493 66.9824 63.9493 66.7796C63.9493 66.5128 64.1015 66.3368 64.4059 66.2514C64.7104 66.1554 64.9972 66.102 65.2665 66.0913C65.5358 66.07 65.7056 66.054 65.7759 66.0433C65.7525 65.6378 65.7408 65.275 65.7408 64.9549C65.7408 63.5783 65.9691 62.3885 66.4257 61.3854C66.8941 60.3717 67.743 59.8648 68.9724 59.8648Z" fill="white"/>
<path d="M75.3883 71.1494C74.6974 71.1494 74.071 71.0106 73.509 70.7332C72.9587 70.4451 72.5254 70.0503 72.2093 69.5487C71.9049 69.0365 71.7526 68.4549 71.7526 67.804C71.7526 66.7369 72.18 65.9419 73.0348 65.4191C73.9012 64.8962 74.9609 64.6347 76.2138 64.6347C76.7875 64.6347 77.3203 64.7628 77.812 65.0189C78.3155 65.275 78.7195 65.6431 79.0239 66.1233C79.3283 66.6035 79.4805 67.1584 79.4805 67.788C79.4805 68.471 79.2873 69.0685 78.901 69.5807C78.5146 70.0823 78.0052 70.4718 77.3729 70.7492C76.7524 71.016 76.0908 71.1494 75.3883 71.1494ZM75.1951 70.237C76.284 70.237 77.1095 70.0129 77.6715 69.5647C78.2335 69.1165 78.5146 68.4603 78.5146 67.5959C78.5146 67.009 78.2921 66.5022 77.8472 66.0753C77.4139 65.6485 76.8051 65.4351 76.0206 65.4351C75.4937 65.4351 74.9609 65.5258 74.4223 65.7072C73.8837 65.8886 73.4387 66.1607 73.0875 66.5235C72.7362 66.8863 72.5606 67.3238 72.5606 67.836C72.5606 68.2629 72.6777 68.663 72.9118 69.0365C73.146 69.3993 73.4622 69.6928 73.8603 69.9169C74.2701 70.1303 74.715 70.237 75.1951 70.237Z" fill="white"/>
<path d="M82.423 71.1334C81.9429 70.2797 81.5624 69.2766 81.2813 68.1241C81.012 66.9717 80.8774 65.9739 80.8774 65.1309C80.8774 64.8001 80.9593 64.5867 81.1233 64.4907C81.2169 64.4373 81.2872 64.4106 81.334 64.4106C81.416 64.4106 81.4745 64.4693 81.5097 64.5867C81.5565 64.7041 81.6033 64.9175 81.6502 65.227L81.738 65.8032C81.8668 65.227 82.1127 64.7735 82.4757 64.4427C82.8503 64.1012 83.307 63.9305 83.8456 63.9305C84.4427 63.9305 84.8877 64.0372 85.1804 64.2506C85.4731 64.4533 85.6195 64.7948 85.6195 65.275C85.0341 65.0189 84.5013 64.8908 84.0212 64.8908C83.5646 64.8908 83.1723 65.0029 82.8445 65.227C82.5166 65.4511 82.2883 65.7819 82.1595 66.2194C82.0541 66.5182 82.0014 66.8009 82.0014 67.0677C82.0014 67.3558 82.0424 67.6279 82.1244 67.884C82.2181 68.1295 82.3586 68.4336 82.5459 68.7964C82.7215 69.1699 82.8562 69.49 82.9499 69.7568C83.0552 70.0236 83.1138 70.3117 83.1255 70.6212C83.1255 70.8026 83.0552 70.9359 82.9147 71.0213C82.7742 71.096 82.6103 71.1334 82.423 71.1334Z" fill="white"/>
<path d="M97.7131 71.1494C97.5375 71.1494 97.4321 71.1067 97.397 71.0213C97.3619 70.9253 97.3443 70.7812 97.3443 70.5891C97.356 70.5144 97.3619 70.4291 97.3619 70.333C97.3619 70.2263 97.3677 70.1463 97.3794 70.0929C97.4497 69.5807 97.4848 69.0952 97.4848 68.6364C97.4848 67.6226 97.2975 66.833 96.9228 66.2674C96.5481 65.6912 95.9568 65.403 95.1489 65.403C94.7039 65.403 94.259 65.5044 93.8141 65.7072C93.3808 65.9099 93.0237 66.1607 92.7427 66.4595C92.4734 66.7583 92.3387 67.0304 92.3387 67.2758C92.3973 67.5853 92.5027 67.9641 92.6549 68.4123C92.6666 68.4656 92.7134 68.631 92.7954 68.9085C92.8891 69.1859 92.9359 69.4367 92.9359 69.6608L92.9535 69.9649C92.9535 70.1356 92.8598 70.221 92.6724 70.221C92.4383 70.221 92.2451 70.0823 92.0928 69.8048C91.9523 69.5274 91.7943 69.0952 91.6186 68.5083C91.443 67.9321 91.2732 67.4572 91.1093 67.0837C90.9454 66.7102 90.7229 66.3901 90.4419 66.1233C90.1609 65.8566 89.8038 65.7232 89.3705 65.7232C88.7734 65.7232 88.305 65.9099 87.9654 66.2834C87.6376 66.6569 87.4737 67.1157 87.4737 67.66C87.4737 68.0228 87.5088 68.503 87.5791 69.1005C87.6376 69.5487 87.6669 69.9329 87.6669 70.253C87.6669 70.4451 87.6435 70.5891 87.5966 70.6852C87.5498 70.7812 87.4385 70.8292 87.2629 70.8292C87.0287 70.8292 86.8648 70.7599 86.7711 70.6212C86.6775 70.4718 86.6306 70.2477 86.6306 69.9489C86.6306 69.362 86.5955 68.6524 86.5252 67.82C86.5135 67.7133 86.4901 67.4412 86.455 67.0037C86.4199 66.5555 86.414 66.1073 86.4374 65.6592L86.455 65.1309C86.5253 65.0669 86.6072 65.0349 86.7009 65.0349C86.8297 65.0349 86.9351 65.1096 87.017 65.259C87.1107 65.3977 87.1575 65.6111 87.1575 65.8993C87.3332 65.6218 87.5908 65.371 87.9303 65.1469C88.2699 64.9229 88.627 64.8108 89.0017 64.8108C89.6457 64.8108 90.1784 64.9335 90.6 65.179C91.0332 65.4137 91.4254 65.7979 91.7767 66.3314C92.1046 65.7872 92.5963 65.323 93.252 64.9389C93.9194 64.5547 94.6044 64.3626 95.3069 64.3626C96.0329 64.3626 96.6359 64.6134 97.116 65.1149C97.6078 65.6165 97.9649 66.2194 98.1873 66.9237C98.4215 67.6279 98.5386 68.2789 98.5386 68.8764C98.5386 69.41 98.4859 69.9222 98.3805 70.4131C98.2869 70.9039 98.0644 71.1494 97.7131 71.1494Z" fill="white"/>
</svg>
