<svg width="101" height="57" viewBox="0 0 101 57" fill="none" xmlns="http://www.w3.org/2000/svg">
<rect x="3" y="25" width="98" height="16" fill="#424242"/>
<path fill-rule="evenodd" clip-rule="evenodd" d="M100.95 28.9834C89.7679 33.2836 73.3279 36 55 36C33.0071 36 13.7327 32.0886 2.99998 26.2228L2.99998 10.4344C6.40584 11.9319 10.3693 12.79 14.5993 12.79C25.2319 12.79 34.1804 7.36792 36.8221 0C40.3976 4.32635 47.4088 7.26655 55.4731 7.26655C60.5098 7.26655 65.1357 6.1196 68.7704 4.20433C72.4767 9.42988 78.2554 12.7901 84.7476 12.7901C91.3726 12.7901 97.2547 9.29088 100.95 3.88102V28.9834Z" fill="#5C92CD"/>
<path fill-rule="evenodd" clip-rule="evenodd" d="M61.9392 24.0804L61.9392 21.4049C57.9047 21.4049 54.6341 17.6479 54.6341 13.0133C54.6341 11.5596 54.9559 10.1922 55.5222 9H49.4171C49.9833 10.1922 50.3051 11.5596 50.3051 13.0133C50.3051 17.6479 47.0345 21.4049 43 21.4049V24.0804H61.9392Z" fill="white"/>
<path fill-rule="evenodd" clip-rule="evenodd" d="M54.093 24.0804V28.1368C53.8958 28.9561 53.7037 29.8387 53.5223 30.7698C53.164 32.6087 52.8931 34.4016 52.7182 35.9993C52.6805 35.999 52.6427 35.9988 52.6049 35.9988C52.5405 35.9988 52.4763 35.9992 52.4122 36C52.2379 34.373 51.9625 32.5372 51.5954 30.653C51.4423 29.8675 51.2817 29.1165 51.1168 28.4089V24.0804H54.093Z" fill="white"/>
<path d="M24.7117 56.1814C18.0025 56.1814 12.8037 55.8452 9.1154 55.173C8.16698 39.1345 7.30637 29.4346 6.53358 26.0732L4.95288 26.4094C4.10984 26.5694 3.30192 26.7455 2.52913 26.9376C1.75634 27.0977 0.93086 27.3377 0.0526902 27.6579L0 26.0252C0 25.481 0.649846 24.9848 1.94954 24.5366C3.24923 24.0564 4.81237 23.6883 6.63896 23.4322C8.50068 23.1441 10.1516 23 11.5918 23C13.1725 23 14.9816 23.2561 17.0189 23.7683C19.0914 24.2805 20.8653 25.0488 22.3406 26.0732C23.816 27.0656 24.5536 28.2501 24.5536 29.6267C24.5536 31.1953 23.8862 32.5879 22.5514 33.8044C21.2517 34.9888 19.5481 35.8372 17.4405 36.3494C20.5316 36.8296 23.412 37.6939 26.0816 38.9424C28.7513 40.1589 30.894 41.6795 32.5098 43.5043C34.1257 45.297 34.9336 47.2338 34.9336 49.3146C34.9336 51.7156 33.9149 53.4603 31.8776 54.5487C29.8402 55.6372 27.4516 56.1814 24.7117 56.1814ZM23.3418 53.4443C25.9411 53.4443 27.9434 53.1882 29.3484 52.676C30.7535 52.1317 31.456 50.9793 31.456 49.2186C31.456 47.3618 30.8413 45.8092 29.6119 44.5607C28.4176 43.2802 26.9949 42.2878 25.344 41.5835C23.7282 40.8472 21.7084 40.0789 19.2846 39.2786C17.3526 38.6703 15.9124 38.1421 14.964 37.6939C14.0507 37.2137 13.5941 36.6855 13.5941 36.1093C13.5941 35.6931 13.8224 35.373 14.279 35.1489C14.7357 34.9248 15.5436 34.6047 16.7028 34.1885C18.2835 33.7083 19.5129 33.1961 20.3911 32.6519C21.3044 32.0757 21.761 31.2753 21.761 30.2509C21.761 28.7463 20.7599 27.5939 18.7577 26.7935C16.7555 25.9612 14.5074 25.545 12.0134 25.545C11.3108 25.545 10.4678 25.6091 9.48423 25.7371C10.3975 31.1153 11.0298 35.6451 11.3811 39.3266C11.7324 42.9761 11.9782 47.2178 12.1187 52.0517C12.6105 52.4999 13.8575 52.836 15.8597 53.0601C17.862 53.2842 20.356 53.4123 23.3418 53.4443Z" fill="white"/>
<path d="M39.703 55.4931C39.4805 54.6821 39.3108 53.8658 39.1937 53.0441C39.0766 52.2118 38.9712 50.8459 38.8775 48.9465C38.8775 48.8184 38.9244 48.7064 39.018 48.6103C39.1234 48.5143 39.2405 48.4663 39.3693 48.4663H39.5274C39.5859 48.8184 39.6269 49.384 39.6503 50.163C39.6503 50.2483 39.662 50.5364 39.6855 51.0273C39.7089 51.5075 39.7674 51.961 39.8611 52.3878C41.2193 52.2705 42.3024 52.0304 43.1103 51.6676C43.9299 51.3047 44.3398 50.7872 44.3398 50.1149C44.3398 49.2719 43.9299 48.5836 43.1103 48.0501C42.2907 47.5166 41.0554 47.2498 39.4044 47.2498C38.7136 47.2498 38.1282 47.3672 37.6481 47.6019C37.5661 47.6339 37.5076 47.7033 37.4725 47.81C37.4373 47.906 37.4081 48.0448 37.3847 48.2262C37.3612 48.4182 37.332 48.5623 37.2968 48.6583C37.2617 48.7544 37.1973 48.8024 37.1036 48.8024C36.9983 48.8024 36.928 48.733 36.8929 48.5943C36.8695 48.4449 36.8577 48.1088 36.8577 47.5859C36.8577 47.2871 37.0802 47.0524 37.5252 46.8816C37.9701 46.7109 38.5438 46.6255 39.2464 46.6255C41.2954 46.6255 42.8176 46.919 43.8129 47.5059C44.8081 48.0928 45.3057 48.9945 45.3057 50.211C45.3057 50.8619 45.0189 51.4061 44.4451 51.8436C43.8714 52.2811 43.1747 52.6066 42.3551 52.82C41.5355 53.0228 40.751 53.1241 40.0016 53.1241C40.025 53.2522 40.0484 53.3696 40.0719 53.4763C40.0953 53.583 40.1128 53.6737 40.1245 53.7484C40.2885 54.474 40.3704 55.0342 40.3704 55.4291C40.3704 55.6638 40.3353 55.8506 40.265 55.9893C40.2065 56.128 40.0718 56.176 39.8611 56.1334L39.703 55.4931Z" fill="white"/>
<path d="M47.2826 56.0213C47.025 54.8582 46.8259 53.4816 46.6854 51.8916C46.5566 50.291 46.4922 48.7437 46.4922 47.2498C46.4922 46.5028 46.5098 45.8412 46.5449 45.265C46.5449 45.1263 46.662 45.0569 46.8962 45.0569C47.0835 45.0569 47.2006 45.0996 47.2475 45.1849C47.306 45.2703 47.3353 45.4037 47.3353 45.5851C47.3353 47.3138 47.3704 48.7917 47.4407 50.0189C47.5109 51.2354 47.6046 52.5479 47.7217 53.9565C47.7919 54.8635 47.8388 55.4771 47.8622 55.7972C47.8739 55.968 47.7744 56.0533 47.5636 56.0533C47.4933 56.0533 47.3997 56.0427 47.2826 56.0213Z" fill="white"/>
<path d="M53.7805 56.1334C52.5628 56.1334 51.5031 55.9413 50.6015 55.5571C49.7116 55.1623 49.2667 54.474 49.2667 53.4923C49.2667 53.1402 49.3838 52.7987 49.618 52.4679C49.8521 52.1371 50.1976 51.8703 50.6542 51.6676C51.1109 51.4541 51.667 51.3474 52.3227 51.3474C52.8262 51.3474 53.2536 51.3688 53.6049 51.4115C53.9561 51.4541 54.3601 51.5715 54.8167 51.7636C55.2734 51.9557 55.7476 52.2598 56.2394 52.676C56.052 51.9397 55.771 51.2941 55.3963 50.7392C55.0216 50.1843 54.6001 49.7575 54.1318 49.4587C53.6751 49.1492 53.2243 48.9945 52.7794 48.9945C52.5686 48.9945 52.3696 49.0318 52.1822 49.1065C52.0066 49.1706 51.79 49.2666 51.5324 49.3946C51.2397 49.5654 51.023 49.6507 50.8825 49.6507C50.824 49.6507 50.7713 49.6347 50.7245 49.6027C50.6893 49.56 50.6718 49.512 50.6718 49.4587C50.6718 49.0318 50.8767 48.701 51.2865 48.4663C51.708 48.2315 52.2174 48.1248 52.8145 48.1461C53.6341 48.1888 54.3835 48.509 55.0626 49.1065C55.7417 49.6934 56.2745 50.4244 56.6609 51.2994C57.059 52.1744 57.258 53.0334 57.258 53.8764C57.258 54.0152 57.2463 54.2126 57.2229 54.4687L56.6609 54.4367C56.216 53.615 55.6422 53.0334 54.9397 52.692C54.2488 52.3398 53.5522 52.1638 52.8496 52.1638C51.948 52.1638 51.3041 52.2865 50.9177 52.5319C50.5313 52.7773 50.3381 53.1348 50.3381 53.6043C50.3381 54.0952 50.6074 54.49 51.146 54.7888C51.6846 55.0876 52.3754 55.237 53.2185 55.237C53.6868 55.237 54.0615 55.2157 54.3425 55.173C54.6235 55.1196 54.9163 55.0503 55.2207 54.9649C55.4666 54.8902 55.6832 54.8368 55.8705 54.8048C56.0579 54.7728 56.2979 54.7568 56.5906 54.7568C56.9185 54.7568 57.1234 54.7781 57.2054 54.8208C57.299 54.8635 57.3459 54.9596 57.3459 55.1089C57.3459 55.2157 57.1058 55.349 56.6258 55.5091C56.1457 55.6692 55.6071 55.8132 55.0099 55.9413C54.4128 56.0693 54.003 56.1334 53.7805 56.1334Z" fill="white"/>
<path d="M61.5793 56.1334C61.4622 56.1547 61.3861 56.1654 61.351 56.1654C60.988 56.1654 60.7363 55.9199 60.5958 55.4291C60.467 54.9382 60.4026 54.2499 60.4026 53.3642C60.4026 53.0014 60.4143 52.4359 60.4377 51.6676C60.4611 51.198 60.4728 50.8459 60.4728 50.6111C59.0326 50.6111 58.3125 50.4617 58.3125 50.163C58.3125 50.0669 58.3242 49.9922 58.3477 49.9389C58.3828 49.8855 58.453 49.8588 58.5584 49.8588L60.4728 49.7468C60.4611 49.2239 60.4319 48.653 60.385 48.0341C60.3382 47.4792 60.3089 46.967 60.2972 46.4975C60.2972 46.3801 60.3499 46.3001 60.4553 46.2574C60.5607 46.204 60.6719 46.1773 60.789 46.1773C60.9295 46.1773 61.0466 46.2467 61.1402 46.3854C61.2339 46.5135 61.2807 46.6469 61.2807 46.7856L61.4037 49.7148L62.8615 49.7788C63.0839 49.7575 63.2713 49.7948 63.4235 49.8908C63.5874 49.9869 63.6752 50.1469 63.6869 50.371C63.441 50.4671 63.1717 50.5258 62.879 50.5471C62.5863 50.5684 62.0945 50.5791 61.4037 50.5791C61.4037 51.5715 61.4564 53.2042 61.5618 55.4771C61.5618 55.7119 61.5618 55.8773 61.5618 55.9733C61.5735 56.0587 61.5793 56.112 61.5793 56.1334Z" fill="white"/>
<path d="M68.9724 44.8648C69.4993 44.8648 70.0028 44.9875 70.4829 45.233C70.9629 45.4677 71.3493 45.7718 71.6421 46.1453C71.9465 46.5188 72.0987 46.8923 72.0987 47.2658H71.7123C71.5367 47.2658 71.3786 47.2178 71.2381 47.1217C71.1093 47.0257 70.9395 46.871 70.7288 46.6575C70.4243 46.3588 70.1492 46.1347 69.9033 45.9853C69.6691 45.8359 69.3647 45.7612 68.99 45.7612C68.346 45.7612 67.8074 46.0333 67.3741 46.5775C66.9409 47.1111 66.6833 47.7406 66.6014 48.4663C66.5662 48.7971 66.5487 49.1279 66.5487 49.4587C66.5487 50.0029 66.5897 50.5044 66.6716 50.9633C66.8238 50.9846 67.1809 51.0113 67.743 51.0433C68.305 51.0753 68.7675 51.102 69.1305 51.1233C69.2593 51.1233 69.511 51.134 69.8857 51.1554C70.0028 51.1554 70.0848 51.182 70.1316 51.2354C70.1901 51.2781 70.2194 51.3581 70.2194 51.4755C70.2194 51.7636 69.8623 51.9077 69.1481 51.9077C68.5275 51.9077 67.7488 51.8063 66.8121 51.6035C66.9409 52.0837 67.1048 52.5266 67.3039 52.9321C67.5029 53.3269 67.7605 53.8018 68.0767 54.3566C68.2992 54.7515 68.4631 55.0609 68.5685 55.285C68.6738 55.4984 68.7265 55.6798 68.7265 55.8292C68.7265 55.9466 68.6855 56.032 68.6036 56.0853C68.5216 56.128 68.4045 56.1494 68.2523 56.1494C67.9362 56.1494 67.6376 55.8452 67.3566 55.237C67.0873 54.6181 66.777 53.7644 66.4257 52.676L66.1096 51.7316C65.852 51.7529 65.53 51.817 65.1436 51.9237C65.1085 51.9343 64.9855 51.9663 64.7748 52.0197C64.5757 52.0624 64.3942 52.0837 64.2303 52.0837C64.043 52.0837 63.9493 51.9824 63.9493 51.7796C63.9493 51.5128 64.1015 51.3368 64.4059 51.2514C64.7104 51.1554 64.9972 51.102 65.2665 51.0913C65.5358 51.07 65.7056 51.054 65.7759 51.0433C65.7525 50.6378 65.7408 50.275 65.7408 49.9549C65.7408 48.5783 65.9691 47.3885 66.4257 46.3854C66.8941 45.3717 67.743 44.8648 68.9724 44.8648Z" fill="white"/>
<path d="M75.3883 56.1494C74.6974 56.1494 74.071 56.0106 73.509 55.7332C72.9587 55.4451 72.5254 55.0503 72.2093 54.5487C71.9049 54.0365 71.7526 53.4549 71.7526 52.804C71.7526 51.7369 72.18 50.9419 73.0348 50.4191C73.9012 49.8962 74.9609 49.6347 76.2138 49.6347C76.7875 49.6347 77.3203 49.7628 77.812 50.0189C78.3155 50.275 78.7195 50.6431 79.0239 51.1233C79.3283 51.6035 79.4805 52.1584 79.4805 52.788C79.4805 53.471 79.2873 54.0685 78.901 54.5807C78.5146 55.0823 78.0052 55.4718 77.3729 55.7492C76.7524 56.016 76.0908 56.1494 75.3883 56.1494ZM75.1951 55.237C76.284 55.237 77.1095 55.0129 77.6715 54.5647C78.2335 54.1165 78.5146 53.4603 78.5146 52.5959C78.5146 52.009 78.2921 51.5022 77.8472 51.0753C77.4139 50.6485 76.8051 50.4351 76.0206 50.4351C75.4937 50.4351 74.9609 50.5258 74.4223 50.7072C73.8837 50.8886 73.4387 51.1607 73.0875 51.5235C72.7362 51.8863 72.5606 52.3238 72.5606 52.836C72.5606 53.2629 72.6777 53.663 72.9118 54.0365C73.146 54.3993 73.4622 54.6928 73.8603 54.9169C74.2701 55.1303 74.715 55.237 75.1951 55.237Z" fill="white"/>
<path d="M82.423 56.1334C81.9429 55.2797 81.5624 54.2766 81.2813 53.1241C81.012 51.9717 80.8774 50.9739 80.8774 50.1309C80.8774 49.8001 80.9593 49.5867 81.1233 49.4907C81.2169 49.4373 81.2872 49.4106 81.334 49.4106C81.416 49.4106 81.4745 49.4693 81.5097 49.5867C81.5565 49.7041 81.6033 49.9175 81.6502 50.227L81.738 50.8032C81.8668 50.227 82.1127 49.7735 82.4757 49.4427C82.8503 49.1012 83.307 48.9305 83.8456 48.9305C84.4427 48.9305 84.8877 49.0372 85.1804 49.2506C85.4731 49.4533 85.6195 49.7948 85.6195 50.275C85.0341 50.0189 84.5013 49.8908 84.0212 49.8908C83.5646 49.8908 83.1723 50.0029 82.8445 50.227C82.5166 50.4511 82.2883 50.7819 82.1595 51.2194C82.0541 51.5182 82.0014 51.8009 82.0014 52.0677C82.0014 52.3558 82.0424 52.6279 82.1244 52.884C82.2181 53.1295 82.3586 53.4336 82.5459 53.7964C82.7215 54.1699 82.8562 54.49 82.9499 54.7568C83.0552 55.0236 83.1138 55.3117 83.1255 55.6212C83.1255 55.8026 83.0552 55.9359 82.9147 56.0213C82.7742 56.096 82.6103 56.1334 82.423 56.1334Z" fill="white"/>
<path d="M97.7131 56.1494C97.5375 56.1494 97.4321 56.1067 97.397 56.0213C97.3619 55.9253 97.3443 55.7812 97.3443 55.5891C97.356 55.5144 97.3619 55.4291 97.3619 55.333C97.3619 55.2263 97.3677 55.1463 97.3794 55.0929C97.4497 54.5807 97.4848 54.0952 97.4848 53.6364C97.4848 52.6226 97.2975 51.833 96.9228 51.2674C96.5481 50.6912 95.9568 50.403 95.1489 50.403C94.7039 50.403 94.259 50.5044 93.8141 50.7072C93.3808 50.9099 93.0237 51.1607 92.7427 51.4595C92.4734 51.7583 92.3387 52.0304 92.3387 52.2758C92.3973 52.5853 92.5027 52.9641 92.6549 53.4123C92.6666 53.4656 92.7134 53.631 92.7954 53.9085C92.8891 54.1859 92.9359 54.4367 92.9359 54.6608L92.9535 54.9649C92.9535 55.1356 92.8598 55.221 92.6724 55.221C92.4383 55.221 92.2451 55.0823 92.0928 54.8048C91.9523 54.5274 91.7943 54.0952 91.6186 53.5083C91.443 52.9321 91.2732 52.4572 91.1093 52.0837C90.9454 51.7102 90.7229 51.3901 90.4419 51.1233C90.1609 50.8566 89.8038 50.7232 89.3705 50.7232C88.7734 50.7232 88.305 50.9099 87.9654 51.2834C87.6376 51.6569 87.4737 52.1157 87.4737 52.66C87.4737 53.0228 87.5088 53.503 87.5791 54.1005C87.6376 54.5487 87.6669 54.9329 87.6669 55.253C87.6669 55.4451 87.6435 55.5891 87.5966 55.6852C87.5498 55.7812 87.4385 55.8292 87.2629 55.8292C87.0287 55.8292 86.8648 55.7599 86.7711 55.6212C86.6775 55.4718 86.6306 55.2477 86.6306 54.9489C86.6306 54.362 86.5955 53.6524 86.5252 52.82C86.5135 52.7133 86.4901 52.4412 86.455 52.0037C86.4199 51.5555 86.414 51.1073 86.4374 50.6592L86.455 50.1309C86.5253 50.0669 86.6072 50.0349 86.7009 50.0349C86.8297 50.0349 86.9351 50.1096 87.017 50.259C87.1107 50.3977 87.1575 50.6111 87.1575 50.8993C87.3332 50.6218 87.5908 50.371 87.9303 50.1469C88.2699 49.9229 88.627 49.8108 89.0017 49.8108C89.6457 49.8108 90.1784 49.9335 90.6 50.179C91.0332 50.4137 91.4254 50.7979 91.7767 51.3314C92.1046 50.7872 92.5963 50.323 93.252 49.9389C93.9194 49.5547 94.6044 49.3626 95.3069 49.3626C96.0329 49.3626 96.6359 49.6134 97.116 50.1149C97.6078 50.6165 97.9649 51.2194 98.1873 51.9237C98.4215 52.6279 98.5386 53.2789 98.5386 53.8764C98.5386 54.41 98.4859 54.9222 98.3805 55.4131C98.2869 55.9039 98.0644 56.1494 97.7131 56.1494Z" fill="white"/>
</svg>
